<?xml version="1.0" standalone="no"?>
<!DOCTYPE svg PUBLIC "-//W3C//DTD SVG 20010904//EN"
 "http://www.w3.org/TR/2001/REC-SVG-20010904/DTD/svg10.dtd">
<svg version="1.0" xmlns="http://www.w3.org/2000/svg"
 width="1276.000000pt" height="1276.000000pt" viewBox="0 0 1276.000000 1276.000000"
 preserveAspectRatio="xMidYMid meet">
<metadata>
Created by potrace 1.11, written by Peter Selinger 2001-2013
</metadata>
<g transform="translate(0.000000,1276.000000) scale(0.100000,-0.100000)"
fill="#000000" stroke="none">
<path d="M8255 9790 c-11 -4 -23 -6 -26 -4 -3 1 -27 -15 -55 -36 -54 -43 -221
-151 -238 -154 -6 -2 -29 -10 -50 -19 -36 -16 -106 -36 -181 -53 -38 -8 -297
-13 -310 -5 -5 3 -23 6 -40 8 -16 2 -64 11 -105 22 -110 28 -184 14 -251 -46
-22 -20 -39 -42 -39 -49 0 -8 -4 -14 -8 -14 -15 0 -29 -66 -26 -119 8 -119 78
-190 224 -226 41 -10 82 -20 90 -21 8 0 33 -4 55 -8 98 -15 168 -23 200 -21
l35 1 1 -115 c1 -138 7 -271 14 -326 3 -22 7 -65 10 -95 6 -73 14 -132 26
-205 5 -33 11 -69 13 -80 2 -11 7 -36 11 -57 l7 -36 -69 25 c-37 14 -75 27
-83 29 -8 2 -46 13 -85 24 -69 20 -105 29 -135 34 -8 2 -40 8 -70 14 -30 6
-75 14 -100 16 -25 3 -56 8 -70 11 -14 3 -60 7 -102 9 -43 2 -81 6 -85 9 -9 6
-417 0 -483 -7 -163 -16 -192 -20 -325 -42 -16 -3 -43 -7 -60 -10 -16 -3 -46
-9 -65 -14 -19 -5 -48 -11 -65 -14 -42 -8 -178 -44 -255 -68 -159 -50 -494
-197 -595 -260 -11 -7 -45 -29 -75 -48 -30 -19 -58 -39 -62 -45 -5 -5 -5 37
-1 95 12 183 5 528 -12 620 -2 14 -6 50 -9 80 -2 30 -7 66 -10 80 -3 14 -8 43
-11 65 -8 52 -28 160 -40 212 -3 13 -6 25 -6 28 0 2 -9 35 -20 72 -11 38 -22
77 -25 88 -7 27 -10 37 -16 55 -3 8 -18 51 -33 95 -15 44 -39 96 -54 115 -15
19 -39 60 -53 90 -26 57 -79 110 -132 130 -64 24 -380 28 -506 6 -14 -3 -43
-7 -65 -11 -215 -31 -414 -95 -630 -204 -96 -48 -181 -98 -203 -118 -7 -7 -17
-13 -21 -13 -4 0 -18 -8 -30 -17 -12 -10 -48 -38 -80 -63 -144 -110 -131 -308
26 -392 40 -22 59 -26 113 -23 59 2 105 15 120 35 15 20 204 136 299 184 97
48 245 105 313 121 13 2 55 12 93 20 95 21 154 28 264 29 l94 1 14 -45 c8 -25
17 -52 20 -60 10 -26 51 -171 58 -205 3 -11 9 -40 15 -65 32 -145 48 -249 55
-357 1 -28 5 -55 8 -60 7 -11 1 -516 -7 -568 -3 -22 -8 -60 -11 -85 -7 -53
-13 -95 -20 -130 -11 -55 -15 -76 -21 -105 -8 -45 -34 -147 -44 -175 -5 -14
-11 -36 -14 -50 -10 -60 -103 -297 -168 -430 -68 -137 -90 -176 -176 -310 -94
-146 -279 -352 -422 -471 -36 -30 -67 -57 -70 -60 -29 -32 -346 -214 -405
-232 -11 -3 -51 -17 -88 -31 -37 -13 -69 -24 -70 -23 -9 6 -96 -42 -115 -63
-92 -99 -84 -265 15 -339 16 -12 34 -26 40 -31 7 -6 13 -8 13 -4 0 3 6 1 14
-5 30 -25 118 -19 220 15 54 18 115 41 135 50 20 10 41 19 46 20 10 2 168 78
230 111 17 9 32 20 33 25 2 4 8 8 13 8 10 0 128 77 139 89 3 4 18 15 33 24 31
20 36 24 145 117 113 96 245 231 317 324 17 21 35 44 40 50 24 27 96 129 155
219 35 53 67 97 71 97 4 0 14 -12 23 -26 30 -45 139 -150 217 -208 69 -51 309
-184 309 -170 0 3 12 -1 28 -9 69 -36 226 -86 357 -112 44 -9 87 -18 96 -20 9
-2 40 -7 70 -10 30 -4 65 -9 79 -11 176 -26 614 -25 795 2 42 7 76 11 135 18
19 3 71 12 115 21 44 9 91 18 105 21 78 16 122 27 183 45 37 12 73 22 80 23 7
2 19 6 27 9 8 3 35 12 60 21 59 19 172 61 213 80 108 49 149 66 157 66 6 0 10
3 10 8 0 4 18 15 41 25 52 23 223 126 227 138 2 5 8 9 14 9 35 0 284 223 363
325 21 28 42 54 46 59 6 6 69 -78 89 -120 3 -5 37 -54 75 -108 39 -54 75 -106
80 -114 6 -9 16 -22 23 -30 7 -8 25 -30 40 -50 15 -21 54 -68 87 -107 32 -38
66 -78 75 -88 45 -54 203 -207 320 -310 8 -7 44 -35 80 -63 36 -27 67 -52 70
-55 3 -3 41 -29 84 -59 141 -94 286 -173 411 -222 28 -11 64 -25 80 -33 34
-14 142 -48 165 -52 8 -1 41 -8 72 -16 70 -17 135 -14 179 8 38 19 99 74 99
89 0 5 7 17 16 27 15 16 23 120 12 159 -8 31 -37 76 -65 101 -39 37 -75 53
-163 74 -247 59 -528 212 -760 413 -144 126 -329 325 -451 487 -64 84 -149
212 -149 224 0 5 -3 11 -8 13 -21 9 -272 473 -272 504 0 2 -9 26 -21 52 -34
76 -37 83 -68 167 -25 67 -72 207 -76 225 -1 3 -7 25 -15 50 -7 25 -14 50 -16
55 -1 6 -10 37 -19 70 -9 33 -19 74 -22 90 -7 40 -9 47 -16 65 -3 8 -8 31 -11
50 -2 19 -7 44 -9 55 -3 11 -8 40 -12 65 -4 25 -9 54 -11 65 -23 115 -35 281
-37 524 -1 154 1 185 13 192 8 5 67 32 130 62 205 96 367 225 391 310 44 156
-51 295 -206 302 -27 1 -59 -1 -70 -5z m-1470 -1950 c0 -1 18 -3 40 -5 262
-18 498 -77 686 -170 152 -75 254 -164 309 -267 27 -51 34 -75 36 -132 4 -132
-57 -250 -206 -396 -78 -77 -235 -200 -256 -200 -2 0 -21 -11 -42 -24 -37 -23
-163 -90 -172 -92 -3 0 -31 -12 -63 -27 -96 -44 -363 -130 -468 -151 -13 -3
-67 -14 -119 -25 -52 -11 -117 -23 -145 -26 -27 -3 -59 -8 -70 -10 -78 -16
-484 -23 -610 -10 -117 12 -141 14 -168 20 -70 13 -93 18 -142 30 -263 62
-467 163 -581 287 -45 50 -56 68 -95 151 -18 38 -15 142 5 202 60 175 238 356
501 505 88 50 249 129 278 136 4 1 9 3 12 4 3 1 8 3 13 5 4 1 14 5 22 8 23 10
103 37 120 42 8 2 27 8 43 14 15 6 27 8 27 5 0 -2 8 0 18 5 11 6 30 12 43 15
13 2 60 14 104 25 44 11 94 22 110 25 17 3 41 8 55 11 14 3 40 8 59 11 19 2
46 6 60 8 46 8 154 18 219 21 35 2 65 5 67 7 3 3 310 1 310 -2z"/>
<path d="M2569 8186 c-2 -2 -40 -6 -84 -10 -44 -4 -91 -9 -105 -10 -51 -8
-106 -16 -130 -21 -14 -3 -38 -8 -54 -11 -16 -2 -32 -6 -35 -8 -3 -2 -22 -7
-41 -10 -19 -3 -66 -15 -105 -27 -38 -12 -74 -22 -80 -23 -5 -1 -14 -4 -20 -7
-5 -4 -31 -12 -57 -20 -27 -7 -48 -17 -48 -21 0 -4 -7 -8 -15 -8 -44 0 -451
-204 -463 -232 -2 -5 -8 -8 -14 -8 -9 0 -227 -159 -259 -189 -10 -9 -35 -31
-56 -49 -56 -46 -216 -209 -255 -259 -18 -24 -36 -43 -40 -43 -4 0 -8 -6 -8
-14 0 -8 -4 -16 -8 -18 -5 -1 -28 -30 -53 -63 -24 -33 -47 -62 -50 -65 -3 -3
-8 -9 -10 -15 -2 -5 -25 -41 -50 -80 -26 -38 -63 -101 -83 -140 -21 -38 -42
-77 -46 -85 -60 -101 -189 -471 -214 -610 -3 -19 -8 -45 -10 -56 -2 -12 -7
-37 -10 -55 -3 -19 -8 -43 -10 -54 -4 -19 -12 -90 -22 -195 -3 -33 -5 -314 -2
-392 1 -21 4 -38 7 -38 3 0 7 -19 7 -43 2 -62 10 -116 30 -222 3 -16 7 -39 9
-50 30 -161 122 -418 219 -615 49 -99 127 -233 138 -238 5 -2 8 -8 8 -13 0 -8
30 -51 93 -134 94 -125 155 -194 270 -307 76 -76 142 -138 146 -138 5 0 19
-10 33 -22 13 -13 39 -34 58 -48 18 -14 38 -29 45 -35 6 -5 18 -14 27 -20 9
-5 47 -31 85 -56 37 -25 91 -60 119 -77 52 -30 280 -143 299 -146 6 -2 26 -9
45 -18 115 -49 330 -113 459 -134 18 -3 43 -8 55 -10 11 -3 37 -7 56 -10 19
-2 51 -7 70 -10 111 -17 402 -23 520 -11 36 3 85 8 110 11 25 3 63 8 85 11 22
3 54 8 70 11 17 3 37 7 45 9 8 2 26 6 40 9 46 8 184 45 240 64 30 11 57 20 60
20 3 0 14 4 25 8 360 130 697 343 955 603 114 115 180 189 180 201 0 4 3 10 8
12 32 14 216 288 279 417 27 53 51 98 55 99 5 2 8 8 8 13 0 6 11 35 25 65 43
93 47 158 17 227 -68 151 -266 186 -379 66 -17 -19 -46 -68 -64 -109 -18 -41
-48 -102 -67 -135 -18 -33 -36 -68 -39 -77 -3 -10 -9 -18 -14 -18 -5 0 -9 -6
-9 -13 0 -7 -7 -22 -15 -32 -8 -11 -30 -42 -48 -70 -35 -56 -34 -54 -108 -145
-118 -145 -307 -319 -454 -416 -152 -101 -414 -237 -480 -248 -5 -1 -23 -7
-40 -13 -35 -13 -133 -44 -155 -48 -8 -2 -37 -9 -65 -15 -27 -6 -62 -13 -78
-15 -15 -2 -31 -6 -35 -9 -32 -19 -470 -29 -597 -14 -321 40 -629 148 -890
313 -308 194 -563 464 -738 782 -60 109 -147 298 -137 298 1 0 -3 11 -8 25
-15 35 -60 189 -66 223 -3 15 -7 35 -10 45 -3 9 -7 33 -10 52 -3 19 -8 46 -11
60 -25 118 -26 486 -1 655 2 11 4 20 6 20 1 0 3 9 4 20 7 52 17 96 36 165 11
41 22 82 24 91 10 39 61 180 86 234 15 33 30 67 34 75 4 8 22 42 41 75 19 33
40 71 47 85 19 36 115 177 157 230 109 136 276 299 395 385 16 11 34 26 41 33
8 6 16 12 19 12 2 0 31 18 64 40 55 36 81 51 195 113 63 35 203 93 293 123 81
26 269 74 314 80 14 1 41 5 60 8 171 27 466 25 630 -4 65 -12 80 -15 142 -29
66 -15 130 -16 156 -2 12 6 22 9 22 5 0 -3 18 7 40 24 179 131 112 390 -110
427 -36 6 -67 11 -110 21 -33 7 -62 11 -140 20 -36 4 -78 9 -95 11 -37 6 -391
13 -396 9z"/>
<path d="M9658 8186 c-1 -2 -34 -7 -73 -10 -38 -4 -83 -9 -100 -11 -16 -3 -50
-7 -75 -10 -25 -3 -61 -10 -80 -15 -19 -5 -51 -12 -70 -15 -92 -15 -255 -70
-294 -100 -138 -105 -118 -312 37 -390 66 -33 109 -32 237 5 58 17 116 32 130
34 14 2 61 11 105 20 44 9 105 17 136 19 30 2 59 5 65 8 24 11 323 1 444 -15
228 -31 492 -114 690 -218 85 -45 307 -183 320 -199 3 -3 34 -30 70 -60 74
-61 201 -188 275 -273 108 -125 281 -414 342 -571 67 -174 121 -384 140 -540
9 -78 10 -433 0 -510 -18 -157 -100 -470 -146 -563 -5 -10 -28 -57 -51 -107
-47 -99 -120 -228 -132 -233 -5 -2 -8 -8 -8 -13 0 -11 -24 -46 -84 -124 -87
-113 -214 -248 -310 -329 -27 -22 -57 -48 -67 -58 -67 -64 -480 -302 -540
-311 -7 -2 -18 -5 -24 -8 -9 -6 -75 -29 -100 -36 -5 -1 -58 -16 -118 -32 -59
-16 -110 -30 -112 -30 -3 0 -18 -2 -33 -5 -132 -27 -183 -31 -392 -31 -178 0
-283 6 -350 20 -14 3 -38 8 -55 11 -174 31 -413 112 -563 190 -91 48 -174 95
-182 104 -3 3 -17 11 -32 19 -15 8 -37 22 -47 33 -11 10 -23 18 -26 18 -24 0
-305 259 -385 355 -75 90 -210 285 -210 304 0 5 -4 11 -8 13 -4 2 -38 65 -76
140 -93 189 -134 226 -256 232 -106 6 -214 -80 -226 -180 -2 -20 -6 -40 -9
-43 -18 -31 112 -311 226 -486 39 -60 75 -111 80 -113 5 -2 9 -10 9 -18 0 -8
3 -14 8 -14 4 0 18 -17 32 -37 14 -20 30 -41 35 -47 6 -6 30 -36 55 -66 146
-179 461 -442 663 -554 26 -14 66 -37 90 -50 47 -26 216 -100 322 -142 116
-45 323 -101 445 -119 61 -10 108 -16 140 -20 190 -24 468 -24 635 0 17 2 48
6 70 9 46 6 93 15 115 21 8 2 29 7 45 10 17 2 39 7 50 10 11 2 40 9 65 15 107
26 334 112 467 176 339 163 654 413 882 699 40 50 78 97 85 105 29 37 158 239
182 288 17 33 34 43 34 19 0 -24 80 -256 101 -293 26 -46 52 -70 109 -95 82
-38 205 -10 260 57 26 32 51 74 44 74 -4 0 -2 6 3 13 23 30 14 100 -30 240
-58 184 -75 241 -87 302 -6 28 -16 70 -21 95 -12 53 -14 65 -28 145 -11 63
-19 123 -27 190 -6 62 -16 276 -14 310 1 17 2 35 2 40 0 20 -14 90 -20 100 -3
5 -7 52 -8 105 -2 112 -15 259 -30 345 -9 52 -32 169 -38 195 -3 14 -8 34 -10
46 -23 113 -95 307 -182 491 -24 51 -44 97 -44 103 0 5 -4 10 -9 10 -5 0 -15
16 -22 35 -7 19 -17 35 -21 35 -4 0 -8 5 -8 10 0 18 -174 271 -192 278 -5 2
-8 8 -8 13 0 5 -8 17 -17 27 -10 10 -43 47 -73 82 -122 140 -279 282 -435 393
-44 31 -85 61 -92 67 -7 5 -16 10 -21 10 -4 0 -17 8 -28 18 -11 9 -53 35 -94
56 -41 22 -88 47 -105 56 -72 39 -345 150 -405 165 -8 2 -50 13 -92 25 -43 11
-88 23 -100 25 -45 9 -143 27 -163 30 -67 10 -115 17 -155 21 -51 6 -426 14
-432 10z"/>
</g>
</svg>
