<?xml version="1.0" encoding="UTF-8" standalone="no"?>
<svg
   xmlns:dc="http://purl.org/dc/elements/1.1/"
   xmlns:cc="http://creativecommons.org/ns#"
   xmlns:rdf="http://www.w3.org/1999/02/22-rdf-syntax-ns#"
   xmlns:svg="http://www.w3.org/2000/svg"
   xmlns="http://www.w3.org/2000/svg"
   viewBox="0 0 356 218.66667"
   height="218.66667"
   width="356"
   xml:space="preserve"
   id="svg2"
   version="1.1"><metadata
     id="metadata8"><rdf:RDF><cc:Work
         rdf:about=""><dc:format>image/svg+xml</dc:format><dc:type
           rdf:resource="http://purl.org/dc/dcmitype/StillImage" /></cc:Work></rdf:RDF></metadata><defs
     id="defs6"><clipPath
       id="clipPath14"
       clipPathUnits="userSpaceOnUse"><path
         id="path12"
         d="M 0,0 H 360 V 504 H 0 Z" /></clipPath><clipPath
       id="clipPath24"
       clipPathUnits="userSpaceOnUse"><path
         id="path22"
         d="M 0,504 H 360 V 0 H 0 Z" /></clipPath><clipPath
       id="clipPath98"
       clipPathUnits="userSpaceOnUse"><path
         id="path96"
         d="m 33.75,166.875 h 279 v 66 h -279 z" /></clipPath></defs><g
     clip-path="url(#clipPath14)"
     transform="matrix(1.3333333,0,0,-1.3333333,-56,517.33333)"
     id="g10"><g
       id="g16"><g
         id="g18"><g
           clip-path="url(#clipPath24)"
           id="g20"><g
             transform="translate(135.083,262.4697)"
             id="g26"><path
               id="path28"
               style="fill:#2c2c2c;fill-opacity:1;fill-rule:nonzero;stroke:none"
               d="m 0,0 c -1.104,-1.074 -2.26,-2.091 -3.465,-3.047 -0.019,-0.015 -0.038,-0.029 -0.057,-0.043 -0.001,-0.001 -0.002,-0.002 -0.003,-0.003 -0.148,-0.11 -0.297,-0.22 -0.446,-0.329 -1.136,-0.828 -2.309,-1.603 -3.517,-2.324 -0.972,-0.58 -1.698,-1.505 -2,-2.601 -0.309,-1.123 -0.149,-2.348 0.439,-3.353 1.189,-2.031 3.917,-2.778 5.955,-1.562 1.171,0.699 2.31,1.449 3.414,2.249 0.001,10e-4 0.001,10e-4 0.002,0.002 0.058,0.042 0.115,0.084 0.173,0.126 0.002,0.002 0.005,0.004 0.007,0.006 0.123,0.089 0.245,0.18 0.366,0.271 0.001,0.001 0.002,0.002 0.003,0.002 0.068,0.051 0.136,0.103 0.204,0.154 l 0.005,0.003 c 0.021,0.016 0.042,0.032 0.063,0.048 0,10e-4 0,10e-4 10e-4,10e-4 0.067,0.051 0.135,0.103 0.202,0.155 0.006,0.004 0.011,0.008 0.016,0.013 0.147,0.112 0.293,0.225 0.439,0.338 0.142,0.11 0.284,0.22 0.426,0.33 0.006,0.006 0.013,0.013 0.02,0.02 1.355,1.069 2.667,2.182 3.908,3.389 C 7.854,-4.5 7.814,-1.66 6.155,0 5.342,0.812 4.227,1.275 3.078,1.275 1.915,1.275 0.828,0.807 0,0" /></g><g
             transform="translate(106.8735,339.8945)"
             id="g30"><path
               id="path32"
               style="fill:#2c2c2c;fill-opacity:1;fill-rule:nonzero;stroke:none"
               d="M 0,0 C -0.104,0 -0.207,-0.001 -0.311,-0.002 -0.32,-0.003 -0.329,-0.003 -0.338,-0.003 h -0.018 c -0.099,-0.001 -0.198,-0.003 -0.298,-0.005 -0.019,0 -0.038,0 -0.057,-10e-4 -0.103,-0.002 -0.207,-0.005 -0.31,-0.008 -0.002,0 -0.004,0 -0.006,0 -0.013,0 -0.026,-10e-4 -0.039,-10e-4 C -1.184,-0.021 -1.302,-0.025 -1.42,-0.029 -1.462,-0.031 -1.505,-0.033 -1.547,-0.035 -2.21,-0.062 -2.872,-0.104 -3.533,-0.158 H -3.535 C -3.601,-0.164 -3.668,-0.17 -3.734,-0.176 -3.77,-0.179 -3.806,-0.182 -3.841,-0.185 -3.846,-0.186 -3.85,-0.186 -3.854,-0.187 -3.865,-0.188 -3.875,-0.188 -3.884,-0.189 H -3.885 C -3.943,-0.195 -4.002,-0.2 -4.06,-0.206 c -0.003,-0.001 -0.005,-0.001 -0.008,-0.001 -0.07,-0.007 -0.14,-0.014 -0.21,-0.021 -0.073,-0.007 -0.146,-0.015 -0.219,-0.023 -0.001,0 -0.003,0 -0.004,0 -0.026,-0.003 -0.052,-0.006 -0.079,-0.009 h -0.004 c -0.086,-0.01 -0.172,-0.019 -0.258,-0.029 -0.788,-0.09 -1.576,-0.192 -2.361,-0.309 -0.321,-0.014 -0.642,-0.065 -0.963,-0.151 -0.1,-0.016 -0.2,-0.033 -0.301,-0.051 0,0 -10e-4,-0.001 -0.002,-0.001 -1.738,-0.303 -3.455,-0.708 -5.145,-1.211 -1.765,-0.526 -3.484,-1.181 -5.177,-1.9 -0.334,-0.098 -0.658,-0.237 -0.97,-0.419 -0.03,-0.013 -0.059,-0.025 -0.089,-0.039 -0.023,-0.01 -0.045,-0.02 -0.067,-0.029 0,-0.001 -10e-4,-0.001 -10e-4,-0.001 -0.621,-0.277 -1.235,-0.567 -1.843,-0.87 -0.159,-0.069 -0.316,-0.148 -0.469,-0.237 -0.021,-0.012 -0.043,-0.022 -0.064,-0.034 -0.017,-0.008 -0.034,-0.017 -0.05,-0.025 -0.015,-0.008 -0.029,-0.015 -0.043,-0.023 -1.159,-0.605 -2.292,-1.256 -3.395,-1.958 -1.442,-0.918 -2.807,-1.936 -4.159,-2.982 -2.141,-1.655 -4.127,-3.497 -5.94,-5.506 -1.169,-1.295 -2.245,-2.67 -3.289,-4.067 -0.86,-1.151 -1.658,-2.351 -2.402,-3.581 -1.596,-2.639 -2.883,-5.463 -3.966,-8.347 -0.961,-2.557 -1.668,-5.206 -2.144,-7.895 -0.547,-3.087 -0.855,-6.222 -0.827,-9.358 0.012,-1.439 0.104,-2.877 0.258,-4.307 0.188,-1.759 0.445,-3.516 0.798,-5.25 0.565,-2.773 1.414,-5.487 2.497,-8.1 0.668,-1.614 1.375,-3.206 2.189,-4.751 0.657,-1.246 1.38,-2.457 2.15,-3.634 0.934,-1.427 1.967,-2.783 3.024,-4.12 0.839,-1.062 1.732,-2.08 2.664,-3.062 2.091,-2.2 4.426,-4.141 6.874,-5.931 2.309,-1.687 4.787,-3.136 7.377,-4.347 2.621,-1.225 5.335,-2.263 8.127,-3.023 2.927,-0.796 5.947,-1.27 8.968,-1.541 2.867,-0.256 5.757,-0.217 8.619,0.086 3.171,0.337 6.303,0.912 9.355,1.843 0.553,0.168 1.102,0.349 1.648,0.541 2.129,0.741 4.217,1.626 6.231,2.637 0.154,0.067 0.307,0.144 0.456,0.231 1.156,0.593 2.285,1.24 3.382,1.933 0.021,0.013 0.041,0.025 0.061,0.038 0.014,0.009 0.027,0.018 0.041,0.026 0.432,0.275 0.859,0.557 1.282,0.846 1.383,0.944 2.721,1.959 4.011,3.026 0.208,0.145 0.405,0.31 0.59,0.494 0.006,0.005 0.012,0.01 0.018,0.015 0.037,0.032 0.075,0.064 0.112,0.096 10e-4,0 10e-4,0.001 0.002,0.002 0.071,0.061 0.142,0.122 0.213,0.183 0.148,0.115 0.291,0.24 0.428,0.376 0.017,0.016 0.034,0.031 0.052,0.046 0.029,0.026 0.058,0.052 0.086,0.078 0.003,0.002 0.006,0.005 0.009,0.008 0.117,0.105 0.233,0.211 0.349,0.318 0.088,0.079 0.174,0.159 0.261,0.239 1.002,0.931 1.956,1.913 2.868,2.932 0.368,0.411 0.727,0.83 1.078,1.255 0.552,0.667 1.087,1.347 1.61,2.036 0.22,0.234 0.415,0.494 0.585,0.78 0.678,0.917 1.318,1.863 1.923,2.83 0.006,0.01 0.013,0.019 0.019,0.029 0.033,0.053 0.066,0.107 0.099,0.16 0.02,0.033 0.04,0.065 0.06,0.098 0.01,0.014 0.018,0.029 0.027,0.043 0.029,0.047 0.058,0.094 0.086,0.141 0.015,0.025 0.03,0.05 0.045,0.075 10e-4,0.003 0.003,0.005 0.004,0.008 0.014,0.022 0.028,0.044 0.041,0.066 0.037,0.061 0.074,0.124 0.111,0.185 0.007,0.013 0.015,0.026 0.022,0.039 0.006,0.008 0.01,0.017 0.016,0.026 0.009,0.016 0.019,0.031 0.028,0.047 0.033,0.057 0.067,0.113 0.1,0.17 0.025,0.043 0.051,0.086 0.076,0.129 0.015,0.027 0.031,0.054 0.045,0.081 0.257,0.445 0.506,0.893 0.747,1.346 l 0.008,0.014 c 0.018,0.034 0.036,0.069 0.055,0.104 0.042,0.079 0.083,0.158 0.125,0.238 0.008,0.015 0.016,0.031 0.024,0.046 0.03,0.057 0.06,0.114 0.089,0.171 0.004,0.008 0.008,0.015 0.012,0.023 0,0 0,0.001 0,0.001 0.02,0.038 0.039,0.077 0.059,0.115 0.033,0.065 0.065,0.129 0.098,0.193 0.059,0.118 0.117,0.236 0.175,0.354 0.001,0 0.001,0.001 0.001,0.002 0.012,0.024 0.024,0.049 0.036,0.073 10e-4,0.001 10e-4,0.002 0.002,0.003 0.039,0.078 0.077,0.158 0.114,0.236 10e-4,0.002 0.002,0.003 0.002,0.005 0.316,0.658 0.613,1.324 0.902,1.994 0.187,0.321 0.333,0.665 0.437,1.035 0.014,0.034 0.027,0.067 0.042,0.1 0.031,0.077 0.063,0.152 0.094,0.229 0.053,0.385 0.104,0.771 0.156,1.157 -0.003,0.785 -0.201,1.518 -0.595,2.197 -0.569,0.973 -1.512,1.7 -2.601,2 -1.123,0.309 -2.347,0.149 -3.353,-0.439 -0.294,-0.227 -0.587,-0.454 -0.881,-0.681 -0.436,-0.439 -0.764,-0.942 -0.982,-1.508 -0.076,-0.171 -0.141,-0.347 -0.196,-0.529 -0.35,-0.782 -0.722,-1.553 -1.115,-2.315 -0.337,-0.648 -0.689,-1.287 -1.057,-1.919 -0.005,-0.009 -0.01,-0.017 -0.014,-0.026 -0.019,-0.032 -0.037,-0.063 -0.056,-0.095 -0.018,-0.03 -0.035,-0.059 -0.052,-0.089 -0.069,-0.117 -0.139,-0.233 -0.209,-0.349 -0.108,-0.179 -0.218,-0.358 -0.328,-0.536 -0.303,-0.484 -0.614,-0.961 -0.934,-1.433 -0.164,-0.243 -0.331,-0.484 -0.5,-0.723 -0.17,-0.197 -0.324,-0.41 -0.461,-0.64 -0.102,-0.14 -0.206,-0.279 -0.31,-0.418 -1.504,-1.891 -3.156,-3.655 -4.939,-5.279 -0.047,-0.041 -0.094,-0.083 -0.139,-0.126 -0.146,-0.132 -0.293,-0.263 -0.44,-0.392 -0.129,-0.101 -0.254,-0.21 -0.374,-0.326 -0.443,-0.381 -0.894,-0.754 -1.352,-1.118 -2.782,-2.088 -5.795,-3.849 -8.979,-5.246 -3.278,-1.328 -6.701,-2.264 -10.198,-2.787 -3.536,-0.421 -7.107,-0.416 -10.643,0.006 -3.535,0.528 -6.994,1.466 -10.306,2.808 -3.142,1.381 -6.112,3.119 -8.857,5.179 -2.675,2.129 -5.098,4.556 -7.227,7.232 -2.087,2.782 -3.848,5.794 -5.246,8.979 -1.326,3.275 -2.263,6.694 -2.787,10.19 -0.423,3.546 -0.418,7.128 0.008,10.675 0.527,3.525 1.464,6.974 2.802,10.278 1.378,3.137 3.113,6.103 5.168,8.845 2.134,2.684 4.566,5.115 7.25,7.248 1.89,1.419 3.886,2.688 5.974,3.797 0.111,0.053 0.222,0.111 0.33,0.174 0.016,0.008 0.032,0.016 0.047,0.024 0.526,0.271 1.057,0.532 1.592,0.782 0.271,0.092 0.533,0.213 0.788,0.36 0.036,0.017 0.072,0.033 0.109,0.049 0.039,0.016 0.078,0.034 0.116,0.051 2.72,1.103 5.54,1.937 8.421,2.49 0.242,0.025 0.483,0.069 0.724,0.134 0.045,0.007 0.091,0.015 0.136,0.023 0.313,0.053 0.626,0.102 0.94,0.149 0.116,0.014 0.232,0.027 0.348,0.041 0.166,0.018 0.333,0.036 0.499,0.053 h 0.003 c 0.104,0.011 0.208,0.021 0.312,0.031 0.096,0.009 0.191,0.018 0.288,0.026 0.809,0.069 1.62,0.117 2.433,0.144 0.079,0.003 0.159,0.005 0.239,0.007 0.161,0.004 0.321,0.008 0.481,0.011 0.1,10e-4 0.2,0.002 0.299,0.003 1.928,0.015 3.852,-0.096 5.764,-0.326 0.238,-0.035 0.474,-0.072 0.71,-0.111 0.159,-0.025 0.316,-0.052 0.474,-0.08 0.001,0 0.002,0 0.003,0 0.079,-0.014 0.158,-0.028 0.237,-0.042 0.066,-0.012 0.132,-0.025 0.199,-0.037 0.212,-0.04 0.425,-0.081 0.638,-0.123 v 0 c 0.06,-0.012 0.12,-0.024 0.18,-0.036 0.131,-0.027 0.262,-0.055 0.392,-0.082 0.153,-0.034 0.305,-0.067 0.458,-0.101 0.248,-0.056 0.494,-0.114 0.74,-0.173 1.149,-0.278 2.323,-0.165 3.354,0.439 0.973,0.569 1.7,1.513 2,2.601 0.31,1.123 0.15,2.348 -0.438,3.353 -0.555,0.948 -1.522,1.739 -2.601,2 -0.214,0.052 -0.428,0.102 -0.641,0.151 -0.021,0.005 -0.043,0.01 -0.064,0.015 -0.089,0.019 -0.177,0.039 -0.266,0.059 h -0.002 c -0.02,0.004 -0.04,0.009 -0.061,0.013 -0.008,0.002 -0.017,0.004 -0.025,0.006 l -0.129,0.028 c -0.016,0.003 -0.033,0.007 -0.049,0.01 -0.002,0 -0.004,10e-4 -0.005,10e-4 -0.043,0.009 -0.085,0.018 -0.127,0.027 -0.016,0.003 -0.031,0.007 -0.046,0.01 -0.104,0.021 -0.208,0.043 -0.311,0.064 -0.003,0 -0.005,0 -0.007,0 -0.01,0.003 -0.022,0.005 -0.032,0.007 l -0.006,0.002 c -0.06,0.012 -0.121,0.024 -0.181,0.035 -0.029,0.006 -0.058,0.012 -0.087,0.017 -10e-4,0 -0.003,0.001 -0.004,0.001 -0.027,0.005 -0.054,0.01 -0.081,0.016 -10e-4,0 -0.003,0.001 -0.005,0.001 -0.035,0.007 -0.071,0.014 -0.107,0.02 l -0.07,0.013 c -0.007,0.002 -0.014,0.003 -0.021,0.004 -0.029,0.006 -0.059,0.011 -0.088,0.017 -0.002,0 -0.003,0 -0.005,0.001 -0.022,0.004 -0.043,0.008 -0.064,0.011 -0.002,0.001 -0.003,0.001 -0.004,0.001 -0.06,0.011 -0.12,0.022 -0.18,0.033 -0.058,0.01 -0.117,0.021 -0.176,0.031 l -0.004,0.001 c -0.105,0.018 -0.211,0.037 -0.316,0.054 -10e-4,0 -0.002,0 -0.003,0.001 -0.013,0.002 -0.026,0.003 -0.039,0.006 -10e-4,0 -0.002,0 -0.004,0.001 C 5.868,-0.295 2.988,0.002 0.096,0 0.073,0 0.049,0 0.026,0 0.018,0 0.009,0 0,0" /></g><g
             transform="translate(133.9453,260.8667)"
             id="g34"><path
               id="path36"
               style="fill:#2c2c2c;fill-opacity:1;fill-rule:nonzero;stroke:none"
               d="M 0,0 C -0.737,-0.207 -1.378,-0.58 -1.921,-1.119 -2.047,-1.221 -2.174,-1.323 -2.301,-1.424 -3.21,-2.107 -4.145,-2.757 -5.103,-3.372 -5.201,-3.435 -5.299,-3.498 -5.398,-3.56 -5.46,-3.599 -5.523,-3.638 -5.585,-3.677 -6.323,-4.134 -7.072,-4.571 -7.833,-4.987 -7.84,-4.991 -7.847,-4.994 -7.854,-4.998 -7.977,-5.065 -8.1,-5.131 -8.224,-5.196 -8.333,-5.249 -8.44,-5.305 -8.546,-5.367 -8.555,-5.371 -8.563,-5.375 -8.572,-5.38 c -0.453,-0.235 -0.91,-0.462 -1.37,-0.682 -0.145,-0.052 -0.287,-0.112 -0.427,-0.181 -0.095,-0.04 -0.19,-0.083 -0.283,-0.13 -0.095,-0.036 -0.189,-0.077 -0.283,-0.12 -0.184,-0.074 -0.365,-0.161 -0.542,-0.261 -0.53,-0.212 -1.063,-0.415 -1.6,-0.608 -0.346,-0.146 -0.693,-0.293 -1.039,-0.439 -0.655,-0.387 -1.175,-0.907 -1.562,-1.561 -0.589,-1.006 -0.748,-2.23 -0.439,-3.354 0.3,-1.087 1.028,-2.032 2.001,-2.601 0.346,-0.146 0.693,-0.292 1.039,-0.438 0.771,-0.208 1.543,-0.208 2.314,0 0.766,0.275 1.522,0.574 2.273,0.884 0.24,0.067 0.473,0.153 0.701,0.26 0.119,0.045 0.235,0.096 0.35,0.151 0.117,0.045 0.232,0.096 0.346,0.152 0.201,0.08 0.398,0.176 0.59,0.288 0.078,0.034 0.156,0.07 0.234,0.105 0.001,0 0.002,10e-4 0.003,0.002 0.487,0.223 0.97,0.454 1.449,0.693 0.16,0.069 0.317,0.148 0.471,0.238 0.063,0.032 0.127,0.065 0.19,0.098 0.013,0.007 0.027,0.014 0.041,0.022 0.204,0.107 0.407,0.214 0.608,0.323 0.023,0.012 0.045,0.024 0.067,0.037 0.087,0.046 0.174,0.094 0.262,0.143 0.025,0.014 0.05,0.027 0.074,0.042 0.559,0.311 1.11,0.632 1.654,0.965 0.026,0.016 0.052,0.031 0.077,0.047 0.059,0.036 0.118,0.073 0.177,0.109 0.026,0.017 0.051,0.032 0.076,0.048 0.009,0.005 0.016,0.01 0.024,0.015 0.005,0.003 0.009,0.006 0.013,0.008 l 0.245,0.155 c 0.014,0.009 0.029,0.017 0.043,0.027 0.072,0.046 0.144,0.092 0.215,0.138 0.025,0.015 0.049,0.031 0.073,0.048 1.645,1.069 3.215,2.249 4.741,3.483 0.227,0.294 0.454,0.587 0.681,0.881 0.394,0.679 0.591,1.411 0.594,2.197 0,1.149 -0.462,2.264 -1.275,3.077 C 3.421,-0.307 2.306,0.156 1.157,0.156 0.771,0.104 0.385,0.052 0,0" /></g><g
             transform="translate(236.3877,339.7363)"
             id="g38"><path
               id="path40"
               style="fill:#2c2c2c;fill-opacity:1;fill-rule:nonzero;stroke:none"
               d="m 0,0 c -0.002,0 -0.005,0 -0.007,0 -0.088,-0.008 -0.175,-0.015 -0.263,-0.023 -0.003,0 -0.006,-0.001 -0.01,-0.001 -0.026,-0.003 -0.051,-0.005 -0.076,-0.007 -0.088,-0.009 -0.176,-0.017 -0.263,-0.026 -0.003,0 -0.007,0 -0.01,-0.001 -0.024,-0.002 -0.048,-0.004 -0.072,-0.007 H -0.707 C -0.809,-0.076 -0.91,-0.086 -1.013,-0.097 -1.016,-0.098 -1.02,-0.098 -1.023,-0.099 -1.033,-0.1 -1.042,-0.101 -1.052,-0.102 h -0.004 c -0.073,-0.008 -0.145,-0.016 -0.217,-0.024 -0.003,0 -0.006,-0.001 -0.008,-0.001 -0.8,-0.091 -1.599,-0.194 -2.396,-0.312 C -3.912,-0.45 -4.147,-0.48 -4.383,-0.53 -4.509,-0.546 -4.636,-0.568 -4.762,-0.596 -4.889,-0.613 -5.016,-0.636 -5.143,-0.665 -5.317,-0.69 -5.491,-0.727 -5.666,-0.774 -5.78,-0.795 -5.894,-0.817 -6.007,-0.84 -6.008,-0.84 -6.009,-0.841 -6.01,-0.841 -6.671,-0.973 -7.329,-1.12 -7.983,-1.28 -8.002,-1.285 -8.02,-1.289 -8.037,-1.293 -8.122,-1.314 -8.206,-1.335 -8.289,-1.356 -8.305,-1.36 -8.319,-1.364 -8.335,-1.368 -8.348,-1.372 -8.36,-1.375 -8.373,-1.378 -8.484,-1.406 -8.597,-1.436 -8.708,-1.465 -8.806,-1.491 -8.902,-1.517 -9,-1.543 l -0.032,-0.009 c -0.003,-10e-4 -0.006,-0.002 -0.009,-0.003 -0.028,-0.007 -0.056,-0.015 -0.083,-0.023 -0.084,-0.023 -0.167,-0.046 -0.25,-0.069 -0.028,-0.008 -0.057,-0.016 -0.085,-0.025 -0.391,-0.111 -0.779,-0.227 -1.166,-0.348 -0.023,-0.007 -0.047,-0.014 -0.071,-0.022 -0.11,-0.034 -0.219,-0.069 -0.328,-0.104 -1.095,-0.353 -2.011,-0.993 -2.601,-2.001 -0.391,-0.667 -0.593,-1.432 -0.593,-2.199 -10e-4,-0.388 0.05,-0.777 0.155,-1.154 0.299,-1.088 1.027,-2.031 2,-2.601 0.97,-0.568 2.265,-0.789 3.353,-0.439 0.583,0.188 1.169,0.365 1.759,0.53 0.156,0.043 0.312,0.086 0.47,0.128 0.124,0.033 0.248,0.066 0.372,0.098 0.08,0.02 0.16,0.041 0.24,0.061 0.031,0.008 0.063,0.016 0.095,0.024 0.513,0.127 1.029,0.245 1.546,0.355 0.134,0.02 0.268,0.045 0.402,0.077 0.116,0.017 0.233,0.039 0.349,0.066 0.094,0.013 0.189,0.03 0.283,0.049 0.175,0.026 0.35,0.062 0.526,0.11 0.013,10e-4 0.026,0.004 0.04,0.006 0.008,0.002 0.017,0.003 0.025,0.005 0.018,0.003 0.036,0.006 0.053,0.009 0.33,0.056 0.659,0.108 0.989,0.157 0.129,0.016 0.258,0.031 0.387,0.046 0.094,0.01 0.188,0.02 0.281,0.03 0.161,0.017 0.322,0.033 0.482,0.048 0.094,0.009 0.186,0.017 0.279,0.026 3.077,0.264 6.169,0.209 9.235,-0.157 0.276,-0.041 0.552,-0.085 0.829,-0.13 2.19,-0.37 4.349,-0.895 6.463,-1.579 0.625,-0.204 1.245,-0.422 1.861,-0.653 0.248,-0.124 0.51,-0.224 0.784,-0.302 0.049,-0.02 0.098,-0.039 0.147,-0.058 0.062,-0.025 0.123,-0.05 0.184,-0.075 3.147,-1.381 6.121,-3.121 8.87,-5.182 2.683,-2.134 5.112,-4.566 7.244,-7.25 2.083,-2.776 3.839,-5.783 5.236,-8.96 1.328,-3.279 2.265,-6.701 2.79,-10.2 0.422,-3.541 0.417,-7.116 -0.005,-10.657 -0.527,-3.524 -1.462,-6.975 -2.799,-10.278 -1.38,-3.146 -3.119,-6.121 -5.181,-8.869 -2.132,-2.681 -4.562,-5.108 -7.243,-7.24 -2.784,-2.089 -5.798,-3.849 -8.983,-5.247 -3.276,-1.326 -6.695,-2.262 -10.19,-2.784 -3.539,-0.422 -7.112,-0.417 -10.651,0.006 -0.784,0.117 -1.564,0.253 -2.341,0.411 -2.713,0.551 -5.369,1.347 -7.937,2.387 -2.643,1.159 -5.165,2.573 -7.535,4.217 -0.172,0.144 -0.359,0.274 -0.557,0.394 -0.261,0.187 -0.521,0.377 -0.777,0.569 -2.681,2.133 -5.11,4.564 -7.242,7.246 -1.415,1.886 -2.681,3.878 -3.786,5.96 -0.023,0.047 -0.048,0.094 -0.074,0.141 -0.265,0.504 -0.521,1.013 -0.767,1.527 -0.054,0.151 -0.118,0.299 -0.19,0.445 -0.038,0.093 -0.079,0.184 -0.124,0.275 -0.082,0.21 -0.181,0.415 -0.297,0.615 -0.045,0.103 -0.09,0.205 -0.134,0.309 -0.002,0.002 -0.003,0.006 -0.004,0.009 -0.008,0.02 -0.017,0.041 -0.026,0.061 -0.014,0.033 -0.028,0.066 -0.042,0.098 -0.227,0.294 -0.453,0.588 -0.681,0.881 -0.543,0.54 -1.183,0.912 -1.921,1.119 -1.123,0.31 -2.347,0.15 -3.353,-0.438 -0.973,-0.57 -1.7,-1.514 -2,-2.601 -0.051,-0.385 -0.104,-0.772 -0.155,-1.157 0.002,-0.643 0.134,-1.25 0.398,-1.821 0.04,-0.102 0.084,-0.203 0.132,-0.302 0.046,-0.117 0.097,-0.232 0.152,-0.346 0.08,-0.201 0.177,-0.398 0.288,-0.591 0.035,-0.078 0.071,-0.156 0.106,-0.234 0.001,0 0.001,-10e-4 0.001,-10e-4 0.222,-0.487 0.453,-0.968 0.691,-1.447 0.07,-0.161 0.151,-0.319 0.24,-0.475 0.039,-0.076 0.08,-0.151 0.119,-0.228 0.006,-0.013 0.014,-0.026 0.021,-0.04 0.101,-0.191 0.201,-0.381 0.304,-0.57 0.011,-0.022 0.024,-0.045 0.036,-0.068 0.041,-0.075 0.082,-0.149 0.123,-0.224 0.012,-0.02 0.022,-0.04 0.033,-0.06 0.326,-0.585 0.663,-1.165 1.014,-1.737 0.01,-0.015 0.018,-0.031 0.028,-0.046 0.037,-0.06 0.074,-0.121 0.111,-0.181 0.012,-0.017 0.023,-0.035 0.034,-0.052 0.004,-0.006 0.007,-0.011 0.01,-0.017 0.008,-0.013 0.017,-0.027 0.025,-0.04 0.037,-0.06 0.075,-0.12 0.113,-0.18 0.011,-0.016 0.021,-0.032 0.031,-0.048 l 0.009,-0.015 c 0.01,-0.015 0.02,-0.03 0.028,-0.045 0.04,-0.06 0.078,-0.12 0.116,-0.18 0.013,-0.021 0.026,-0.041 0.04,-0.062 l 0.029,-0.045 c 0.021,-0.031 0.04,-0.062 0.061,-0.092 0.015,-0.025 0.031,-0.049 0.046,-0.073 0.005,-0.007 0.01,-0.015 0.015,-0.022 0.005,-0.007 0.01,-0.014 0.015,-0.021 0.007,-0.011 0.014,-0.022 0.021,-0.034 0.01,-0.014 0.02,-0.029 0.029,-0.044 0.238,-0.363 0.483,-0.722 0.733,-1.077 0.207,-0.295 0.418,-0.589 0.632,-0.88 0.001,0 0.001,-0.001 0.001,-0.001 0.042,-0.057 0.084,-0.114 0.126,-0.171 0.007,-0.007 0.012,-0.015 0.018,-0.023 0.366,-0.49 0.737,-0.976 1.115,-1.455 0.105,-0.134 0.21,-0.268 0.315,-0.402 0.857,-1.088 1.771,-2.132 2.725,-3.137 0.419,-0.44 0.847,-0.871 1.285,-1.292 0.013,-0.013 0.026,-0.026 0.04,-0.04 0.052,-0.049 0.102,-0.099 0.154,-0.148 0.021,-0.019 0.041,-0.039 0.062,-0.058 0.506,-0.48 1.023,-0.949 1.55,-1.406 l 0.003,-0.003 c 0.054,-0.047 0.109,-0.094 0.162,-0.141 0.002,-0.001 0.004,-0.002 0.006,-0.003 0.204,-0.175 0.409,-0.347 0.617,-0.518 0,-0.001 0,-0.001 0.001,-0.002 0.066,-0.055 0.132,-0.109 0.199,-0.163 0.003,-0.002 0.005,-0.003 0.007,-0.005 0.068,-0.056 0.137,-0.112 0.206,-0.168 0.624,-0.508 1.259,-1.001 1.904,-1.483 0.224,-0.204 0.47,-0.386 0.738,-0.545 0.047,-0.033 0.093,-0.067 0.14,-0.1 1.139,-0.824 2.32,-1.59 3.535,-2.298 0.017,-0.009 0.033,-0.02 0.051,-0.03 0.6,-0.348 1.208,-0.684 1.823,-1.005 0.015,-0.007 0.028,-0.014 0.043,-0.021 0.051,-0.028 0.103,-0.054 0.154,-0.08 10e-4,-10e-4 0.003,-10e-4 0.004,-0.002 0.153,-0.078 0.306,-0.156 0.459,-0.233 0.002,-10e-4 0.003,-0.002 0.005,-0.003 0.091,-0.045 0.183,-0.091 0.273,-0.134 0.002,-10e-4 0.004,-0.002 0.007,-0.003 0.049,-0.025 0.098,-0.048 0.148,-0.073 0.04,-0.019 0.081,-0.039 0.121,-0.058 0.008,-0.004 0.015,-0.007 0.021,-0.01 0.23,-0.11 0.46,-0.22 0.692,-0.326 1.697,-0.785 3.427,-1.484 5.187,-2.082 0.147,-0.062 0.296,-0.117 0.45,-0.168 0.198,-0.065 0.395,-0.128 0.592,-0.191 0.009,-0.003 0.018,-0.005 0.026,-0.007 0.02,-0.007 0.041,-0.014 0.061,-0.02 0.071,-0.022 0.143,-0.044 0.214,-0.066 l 0.067,-0.021 0.214,-0.064 c 0.007,-0.002 0.014,-0.004 0.02,-0.006 0.011,-0.003 0.02,-0.006 0.03,-0.009 1.9,-0.565 3.837,-1.004 5.795,-1.317 0.018,-0.003 0.036,-0.005 0.055,-0.008 0.153,-0.025 0.306,-0.048 0.461,-0.07 3.133,-0.467 6.27,-0.717 9.439,-0.594 1.765,0.068 3.512,0.276 5.262,0.515 1.401,0.193 2.793,0.45 4.172,0.771 3.05,0.71 5.973,1.795 8.836,3.056 2.517,1.107 4.923,2.463 7.194,4.015 2.524,1.725 4.92,3.674 7.093,5.826 2.197,2.175 4.157,4.602 5.918,7.14 1.578,2.276 2.928,4.707 4.051,7.237 1.213,2.731 2.236,5.524 2.951,8.427 0.336,1.362 0.598,2.74 0.805,4.128 0.257,1.725 0.465,3.458 0.565,5.2 0.08,1.401 0.086,2.805 0.033,4.208 -0.067,1.755 -0.272,3.492 -0.508,5.232 -0.389,2.864 -1.052,5.682 -1.98,8.42 -0.562,1.655 -1.236,3.273 -1.948,4.868 -0.581,1.301 -1.23,2.57 -1.932,3.809 -1.501,2.648 -3.301,5.119 -5.248,7.455 -1.637,1.964 -3.453,3.777 -5.403,5.431 -2.275,1.932 -4.711,3.696 -7.293,5.195 -1.82,1.057 -3.719,1.955 -5.658,2.766 -0.301,0.168 -0.622,0.301 -0.965,0.397 -0.006,0.002 -0.013,0.005 -0.02,0.008 -0.062,0.025 -0.123,0.05 -0.185,0.074 -0.001,0 -0.002,0 -0.003,0 -0.775,0.308 -1.558,0.593 -2.349,0.858 -0.034,0.012 -0.07,0.024 -0.105,0.035 -0.07,0.023 -0.14,0.047 -0.212,0.069 l -0.001,10e-4 c -2.105,0.681 -4.255,1.203 -6.437,1.572 -10e-4,0 -0.003,0.001 -0.005,0.001 C 10.037,-0.243 7.807,0.023 5.567,0.121 4.963,0.146 4.358,0.159 3.755,0.159 2.501,0.159 1.249,0.104 0,0" /></g><g
             transform="translate(137.4531,364.0669)"
             id="g42"><path
               id="path44"
               style="fill:#2c2c2c;fill-opacity:1;fill-rule:nonzero;stroke:none"
               d="m 0,0 c -1.087,-0.3 -2.032,-1.027 -2.601,-2 -0.147,-0.347 -0.293,-0.693 -0.439,-1.04 -0.207,-0.771 -0.207,-1.542 0,-2.314 0.07,-0.193 0.14,-0.387 0.208,-0.582 0.039,-0.11 0.077,-0.221 0.116,-0.331 0.31,-0.901 0.598,-1.811 0.865,-2.726 0.037,-0.128 0.074,-0.255 0.11,-0.382 0.001,-0.005 0.003,-0.009 0.004,-0.014 0.019,-0.068 0.038,-0.135 0.057,-0.202 0.028,-0.101 0.056,-0.201 0.083,-0.303 0.239,-0.871 0.457,-1.748 0.657,-2.628 0.022,-0.13 0.051,-0.259 0.085,-0.388 0.022,-0.135 0.05,-0.27 0.085,-0.405 0.025,-0.162 0.06,-0.324 0.103,-0.486 0.123,-0.607 0.237,-1.217 0.342,-1.827 0.012,-0.191 0.036,-0.382 0.073,-0.573 0.014,-0.125 0.033,-0.25 0.058,-0.376 0.024,-0.246 0.068,-0.492 0.133,-0.738 0.088,-0.711 0.164,-1.423 0.228,-2.137 0.016,-0.187 0.032,-0.374 0.047,-0.561 0.019,-0.23 0.036,-0.459 0.052,-0.689 l 0.004,-0.06 c 0.065,-0.975 0.109,-1.951 0.131,-2.928 0.004,-0.181 0.007,-0.362 0.01,-0.543 0,-0.019 0.001,-0.039 0.001,-0.059 v -0.012 c 0.003,-0.261 0.005,-0.522 0.005,-0.783 -0.001,-2.619 -0.162,-5.235 -0.484,-7.833 -0.091,-0.634 -0.192,-1.267 -0.302,-1.898 -0.262,-1.477 -0.576,-2.945 -0.943,-4.4 -0.06,-0.234 -0.12,-0.467 -0.182,-0.7 -0.003,-0.01 -0.006,-0.021 -0.009,-0.032 -0.264,-0.985 -0.553,-1.964 -0.867,-2.935 -0.032,-0.101 -0.066,-0.202 -0.099,-0.303 -0.052,-0.134 -0.097,-0.27 -0.137,-0.411 -0.017,-0.049 -0.034,-0.099 -0.05,-0.148 -0.225,-0.658 -0.462,-1.311 -0.71,-1.961 -0.133,-0.26 -0.241,-0.535 -0.322,-0.826 -0.019,-0.046 -0.037,-0.091 -0.056,-0.137 -0.041,-0.101 -0.082,-0.203 -0.123,-0.304 -0.346,-0.796 -0.711,-1.584 -1.092,-2.364 -1.447,-2.936 -3.151,-5.738 -5.119,-8.353 -2.008,-2.533 -4.267,-4.864 -6.768,-6.914 -0.245,-0.156 -0.476,-0.337 -0.692,-0.544 -0.567,-0.42 -1.146,-0.826 -1.734,-1.216 -0.124,-0.081 -0.247,-0.162 -0.371,-0.242 -0.763,-0.49 -1.541,-0.955 -2.335,-1.392 -0.058,-0.032 -0.115,-0.063 -0.173,-0.095 -0.111,-0.06 -0.222,-0.119 -0.333,-0.178 -0.007,-0.003 -0.013,-0.006 -0.018,-0.01 l -0.012,-0.006 c -0.763,-0.401 -1.539,-0.777 -2.328,-1.125 -1.151,-0.463 -2.323,-0.866 -3.516,-1.208 -1.089,-0.313 -2.026,-1.019 -2.6,-2 -0.589,-1.005 -0.749,-2.23 -0.439,-3.354 0.624,-2.267 3.073,-3.693 5.354,-3.04 1.383,0.397 2.74,0.877 4.066,1.435 1.113,0.47 2.215,0.95 3.292,1.488 0.156,0.068 0.308,0.145 0.458,0.232 0.039,0.021 0.078,0.041 0.117,0.062 0.009,0.005 0.018,0.01 0.028,0.015 0.017,0.009 0.034,0.018 0.051,0.027 0.022,0.011 0.043,0.023 0.064,0.034 0.012,0.006 0.024,0.013 0.035,0.019 0.019,0.01 0.038,0.02 0.057,0.03 0.055,0.029 0.109,0.059 0.164,0.089 0.016,0.008 0.032,0.018 0.048,0.026 0.036,0.02 0.072,0.039 0.107,0.059 0.034,0.018 0.068,0.037 0.102,0.056 0.021,0.012 0.043,0.024 0.064,0.036 0.687,0.384 1.363,0.788 2.027,1.211 0.011,0.008 0.023,0.015 0.035,0.023 0.048,0.03 0.095,0.06 0.142,0.091 0.016,0.01 0.032,0.021 0.048,0.031 0.014,0.01 0.029,0.019 0.044,0.029 0.016,0.01 0.033,0.021 0.05,0.032 0.082,0.053 0.164,0.108 0.246,0.162 0.002,0.002 0.005,0.004 0.006,0.006 0.755,0.504 1.487,1.037 2.21,1.584 0.008,0.005 0.017,0.01 0.025,0.015 0.373,0.287 0.746,0.574 1.117,0.863 0.008,0.01 0.016,0.021 0.024,0.031 1.287,1.027 2.533,2.094 3.711,3.254 1.331,1.309 2.572,2.707 3.735,4.168 1.393,1.75 2.712,3.552 3.9,5.448 0.94,1.499 1.797,3.049 2.581,4.635 0,0.001 10e-4,0.002 10e-4,0.002 0.019,0.039 0.038,0.078 0.057,0.117 0.009,0.017 0.017,0.034 0.026,0.052 0,0.001 10e-4,0.003 0.002,0.005 0.593,1.216 1.141,2.455 1.66,3.705 0.167,0.299 0.298,0.619 0.393,0.959 0.007,0.017 0.014,0.034 0.02,0.05 0.009,0.023 0.018,0.045 0.027,0.068 0.294,0.736 0.574,1.477 0.838,2.225 0.073,0.173 0.136,0.353 0.188,0.538 0.021,0.062 0.042,0.123 0.062,0.184 0.062,0.184 0.123,0.367 0.184,0.551 v 10e-4 c 0.027,0.081 0.052,0.161 0.078,0.243 0.005,0.013 0.009,0.025 0.013,0.038 0.299,0.934 0.576,1.876 0.831,2.823 0.006,0.023 0.012,0.046 0.018,0.069 0.048,0.182 0.096,0.365 0.143,0.549 0.003,0.013 0.007,0.025 0.01,0.038 0.018,0.067 0.035,0.136 0.051,0.204 0.006,0.021 0.011,0.043 0.016,0.064 0.341,1.369 0.636,2.749 0.883,4.137 0.008,0.045 0.016,0.089 0.024,0.134 0,0.005 0.001,0.009 0.001,0.014 0.708,4.054 1.102,8.166 1.084,12.284 0,0.016 0,0.032 -0.001,0.048 v 0.05 c -10e-4,0.108 -0.002,0.216 -0.003,0.323 -0.001,0.027 -0.001,0.053 -0.001,0.079 v 0.019 c -0.002,0.106 -0.003,0.211 -0.005,0.316 0,0.022 -0.001,0.045 -0.002,0.068 0,0.012 0,0.024 0,0.036 -0.002,0.088 -0.004,0.176 -0.006,0.263 0,0.022 -10e-4,0.043 -0.002,0.065 -0.021,0.846 -0.059,1.692 -0.113,2.537 l -0.003,0.054 c -0.005,0.064 -0.009,0.129 -0.014,0.193 -0.003,0.056 -0.007,0.113 -0.011,0.169 -0.001,10e-4 -0.001,0.003 -0.001,0.004 -0.011,0.153 -0.022,0.305 -0.034,0.458 v 0.002 c -0.007,0.086 -0.014,0.171 -0.021,0.257 -10e-4,10e-4 -10e-4,0.002 -10e-4,0.003 -0.004,0.048 -0.008,0.096 -0.012,0.144 v 0.007 l -0.007,0.081 c -0.007,0.076 -0.013,0.152 -0.02,0.227 0,0.003 -0.001,0.006 -0.001,0.009 -0.078,0.846 -0.171,1.691 -0.282,2.533 v 0.002 c -0.018,0.137 -0.036,0.275 -0.055,0.412 0,0.268 -0.026,0.537 -0.076,0.805 -0.014,0.143 -0.035,0.285 -0.062,0.427 -0.025,0.24 -0.069,0.48 -0.134,0.72 -0.012,0.083 -0.025,0.167 -0.038,0.251 -10e-4,0 -10e-4,0 -10e-4,10e-4 -0.098,0.626 -0.206,1.25 -0.323,1.874 -0.022,0.187 -0.056,0.373 -0.102,0.56 -0.022,0.142 -0.052,0.284 -0.088,0.426 -0.023,0.14 -0.053,0.279 -0.09,0.419 -0.024,0.139 -0.054,0.279 -0.091,0.418 -0.015,0.066 -0.03,0.133 -0.045,0.199 -0.01,0.047 -0.021,0.094 -0.032,0.141 -0.003,0.016 -0.007,0.032 -0.01,0.047 -0.199,0.868 -0.414,1.731 -0.649,2.59 -0.006,0.019 -0.011,0.039 -0.016,0.058 -0.034,0.121 -0.068,0.242 -0.102,0.363 -0.004,0.017 -0.009,0.034 -0.014,0.051 L 6.632,-6.99 6.585,-6.826 c -0.005,0.018 -0.01,0.036 -0.016,0.055 -0.003,0.01 -0.006,0.02 -0.008,0.03 -0.006,0.019 -0.011,0.038 -0.017,0.056 -0.022,0.076 -0.044,0.152 -0.066,0.227 -0.01,0.035 -0.02,0.068 -0.03,0.102 -0.003,0.007 -0.005,0.014 -0.007,0.021 -0.22,0.738 -0.454,1.472 -0.703,2.202 -0.005,0.015 -0.01,0.031 -0.015,0.047 -0.009,0.026 -0.018,0.053 -0.028,0.08 -0.017,0.05 -0.034,0.101 -0.052,0.152 l -0.015,0.042 c 0,0 0,0 0,10e-4 -0.01,0.029 -0.021,0.059 -0.031,0.088 0,10e-4 0,0.002 0,0.002 L 5.563,-3.625 5.512,-3.48 c -0.01,0.027 -0.02,0.055 -0.03,0.084 -0.001,10e-4 -0.002,0.002 -0.002,0.004 -0.032,0.09 -0.064,0.181 -0.097,0.27 0,10e-4 -0.001,0.002 -0.001,0.003 C 5.373,-3.092 5.363,-3.066 5.354,-3.04 5.207,-2.693 5.061,-2.347 4.915,-2 4.528,-1.346 4.007,-0.826 3.354,-0.438 2.685,-0.047 1.918,0.155 1.149,0.155 0.763,0.155 0.376,0.104 0,0" /></g><g
             transform="translate(133.6748,367.0996)"
             id="g46"><path
               id="path48"
               style="fill:#2c2c2c;fill-opacity:1;fill-rule:nonzero;stroke:none"
               d="m 0,0 h -0.01 c -0.018,0 -0.036,0 -0.054,0 h -0.072 c -0.015,0 -0.03,-0.001 -0.045,-0.001 -0.027,0 -0.053,0 -0.08,0 -0.011,0 -0.023,-0.001 -0.034,-0.001 -0.03,0 -0.059,0 -0.088,-0.001 h -0.023 c -2.275,-0.03 -4.555,-0.278 -6.792,-0.696 -0.181,-0.021 -0.363,-0.054 -0.544,-0.099 -0.121,-0.02 -0.242,-0.046 -0.363,-0.077 -0.129,-0.023 -0.257,-0.052 -0.386,-0.086 -0.032,-0.008 -0.066,-0.015 -0.098,-0.022 -0.035,-0.008 -0.07,-0.016 -0.105,-0.024 -0.011,-0.003 -0.022,-0.005 -0.033,-0.008 -0.002,-0.001 -0.005,-0.001 -0.007,-0.002 -0.014,-0.003 -0.027,-0.006 -0.041,-0.009 -0.01,-0.002 -0.019,-0.004 -0.029,-0.007 -0.017,-0.004 -0.033,-0.008 -0.05,-0.011 -0.042,-0.01 -0.085,-0.02 -0.127,-0.03 -0.026,-0.007 -0.052,-0.012 -0.077,-0.019 -0.025,-0.006 -0.051,-0.012 -0.076,-0.019 -0.249,-0.06 -0.496,-0.124 -0.743,-0.19 -0.005,-10e-4 -0.01,-0.002 -0.015,-0.004 -0.011,-0.003 -0.023,-0.006 -0.034,-0.009 -0.021,-0.005 -0.042,-0.011 -0.062,-0.017 -0.003,-10e-4 -0.006,-10e-4 -0.009,-0.002 -0.337,-0.091 -0.674,-0.187 -1.009,-0.289 -0.018,-0.005 -0.036,-0.011 -0.054,-0.016 -0.066,-0.02 -0.132,-0.04 -0.198,-0.061 l -0.055,-0.018 c -0.021,-0.006 -0.042,-0.012 -0.063,-0.019 -0.047,-0.015 -0.094,-0.03 -0.141,-0.045 -0.04,-0.013 -0.079,-0.026 -0.119,-0.039 -0.018,-0.005 -0.037,-0.012 -0.056,-0.017 -0.065,-0.022 -0.13,-0.043 -0.194,-0.065 -0.006,-0.002 -0.012,-0.004 -0.018,-0.006 -0.034,-0.011 -0.069,-0.023 -0.103,-0.034 -0.066,-0.022 -0.131,-0.045 -0.197,-0.067 -10e-4,-0.001 -0.002,-0.001 -0.002,-0.001 l -0.076,-0.027 -0.005,-0.001 c -0.133,-0.047 -0.266,-0.094 -0.399,-0.142 -0.295,-0.106 -0.588,-0.216 -0.881,-0.33 -0.009,-0.004 -0.018,-0.008 -0.027,-0.011 -0.196,-0.077 -0.391,-0.155 -0.586,-0.235 -10e-4,0 -0.002,0 -0.003,-10e-4 -0.067,-0.028 -0.135,-0.055 -0.202,-0.083 -0.036,-0.015 -0.073,-0.031 -0.109,-0.046 -0.299,-0.083 -0.589,-0.198 -0.87,-0.346 -0.266,-0.092 -0.525,-0.211 -0.776,-0.356 l -0.178,-0.081 c -0.008,-0.003 -0.015,-0.007 -0.023,-0.01 -0.034,-0.015 -0.068,-0.031 -0.102,-0.046 0,-10e-4 0,-10e-4 -10e-4,-10e-4 -0.465,-0.213 -0.926,-0.435 -1.382,-0.666 -0.14,-0.063 -0.278,-0.134 -0.414,-0.212 -0.036,-0.02 -0.073,-0.04 -0.111,-0.059 -0.061,-0.033 -0.123,-0.065 -0.184,-0.098 -0.086,-0.047 -0.172,-0.092 -0.257,-0.139 -0.009,-0.005 -0.017,-0.009 -0.025,-0.014 -0.004,-0.002 -0.008,-0.004 -0.012,-0.006 -0.061,-0.034 -0.122,-0.067 -0.184,-0.101 -0.02,-0.011 -0.039,-0.022 -0.059,-0.034 l -0.013,-0.007 c -0.013,-0.007 -0.025,-0.014 -0.037,-0.02 -0.073,-0.041 -0.146,-0.082 -0.219,-0.124 -0.027,-0.014 -0.053,-0.029 -0.079,-0.045 -0.567,-0.324 -1.127,-0.663 -1.678,-1.014 -0.014,-0.009 -0.027,-0.017 -0.041,-0.026 l -0.115,-0.075 c -0.057,-0.036 -0.112,-0.072 -0.168,-0.108 -0.017,-0.011 -0.035,-0.023 -0.052,-0.034 -0.019,-0.012 -0.038,-0.025 -0.056,-0.037 -0.023,-0.016 -0.046,-0.031 -0.068,-0.045 -0.002,-10e-4 -0.003,-0.002 -0.004,-0.003 -0.024,-0.016 -0.049,-0.033 -0.074,-0.049 -0.009,-0.006 -0.018,-0.012 -0.028,-0.019 -0.081,-0.054 -0.164,-0.109 -0.245,-0.165 -10e-4,0 -0.002,-0.001 -0.003,-0.002 -0.008,-0.005 -0.016,-0.011 -0.025,-0.016 -0.002,-0.002 -0.005,-0.003 -0.007,-0.005 -0.074,-0.05 -0.148,-0.101 -0.222,-0.152 l -0.057,-0.04 c -10e-4,0 -0.002,0 -0.003,-0.001 -0.464,-0.322 -0.921,-0.653 -1.373,-0.993 -0.294,-0.227 -0.587,-0.453 -0.881,-0.68 -0.539,-0.543 -0.912,-1.183 -1.119,-1.921 -0.309,-1.123 -0.15,-2.348 0.439,-3.353 0.569,-0.973 1.513,-1.7 2.601,-2 0.385,-0.052 0.771,-0.104 1.157,-0.156 0.785,0.002 1.518,0.201 2.196,0.594 0.497,0.375 1.002,0.738 1.515,1.09 0.131,0.09 0.263,0.179 0.396,0.268 0.065,0.043 0.13,0.087 0.195,0.13 l 0.222,0.145 c 0.711,0.459 1.436,0.897 2.174,1.312 0.07,0.038 0.14,0.077 0.209,0.115 0.042,0.023 0.083,0.046 0.125,0.069 0.004,0.002 0.007,0.004 0.011,0.006 0.167,0.09 0.335,0.181 0.504,0.27 0.377,0.197 0.757,0.389 1.141,0.573 0.2,0.074 0.397,0.163 0.589,0.267 0.243,0.085 0.478,0.193 0.708,0.322 0.275,0.109 0.551,0.214 0.828,0.317 0.264,0.097 0.528,0.191 0.794,0.283 l 0.046,0.016 c 0.12,0.04 0.239,0.08 0.359,0.119 0.097,0.033 0.196,0.064 0.294,0.095 0.836,0.266 1.681,0.5 2.535,0.703 0.048,0.011 0.096,0.022 0.143,0.033 0.061,0.011 0.122,0.024 0.182,0.038 0.043,0.009 0.085,0.019 0.127,0.029 0.124,0.022 0.248,0.05 0.372,0.083 0.442,0.092 0.884,0.175 1.328,0.25 0.011,0.002 0.021,0.004 0.031,0.006 0.011,0.002 0.022,0.003 0.034,0.005 0.155,0.026 0.31,0.051 0.466,0.075 0.658,0.076 1.317,0.133 1.978,0.171 h 0.002 c 0.022,0.002 0.044,0.003 0.067,0.004 h 0.004 c 0.019,10e-4 0.039,0.003 0.058,0.004 0.005,0 0.009,0 0.014,0 0.016,10e-4 0.032,0.002 0.048,0.003 l 0.024,10e-4 c 0.015,10e-4 0.029,10e-4 0.043,0.002 l 0.028,10e-4 c 0.013,10e-4 0.027,0.002 0.04,0.002 0.01,10e-4 0.021,10e-4 0.031,0.002 0.013,10e-4 0.025,10e-4 0.038,0.002 0.011,0 0.022,10e-4 0.034,10e-4 l 0.033,0.002 c 0.013,0 0.025,10e-4 0.038,0.002 0.01,0 0.021,0 0.032,0.001 0.013,0 0.026,10e-4 0.039,0.002 0.011,0 0.022,0.001 0.033,0.001 l 0.037,10e-4 c 0.013,10e-4 0.026,10e-4 0.039,0.002 0.01,0 0.021,0 0.032,10e-4 0.012,0 0.023,10e-4 0.035,10e-4 0.012,0 0.024,10e-4 0.036,10e-4 l 0.041,0.002 c 0.01,0 0.02,0 0.03,10e-4 0.042,0.001 0.084,0.003 0.127,0.004 0.005,0 0.009,0 0.014,0 0.023,10e-4 0.045,0.002 0.067,0.002 h 0.003 l 0.062,0.002 c 0.003,0 0.007,0 0.01,0 0.018,10e-4 0.036,10e-4 0.054,10e-4 0.006,0.001 0.012,0.001 0.017,0.001 0.044,10e-4 0.089,0.002 0.134,0.003 h 0.008 c 0.262,0.004 0.523,0.006 0.785,0.005 0.112,-10e-4 0.223,-0.002 0.335,-0.003 0.111,-0.002 0.223,-0.004 0.335,-0.007 0.131,-0.004 0.261,-0.008 0.392,-0.013 0.033,-10e-4 0.067,-0.002 0.1,-0.003 0.102,-0.009 0.206,-0.015 0.311,-0.017 0.094,-0.009 0.188,-0.014 0.284,-0.017 0.091,-0.01 0.183,-0.017 0.275,-0.021 0.159,-0.017 0.32,-0.026 0.483,-0.027 0.029,-0.002 0.058,-0.004 0.086,-0.007 0.195,-0.016 0.39,-0.034 0.584,-0.054 0.386,0.053 0.772,0.104 1.158,0.156 0.737,0.207 1.377,0.58 1.92,1.12 0.812,0.812 1.274,1.928 1.274,3.077 0,1.149 -0.462,2.265 -1.274,3.078 -0.293,0.226 -0.587,0.453 -0.881,0.68 -0.604,0.351 -1.251,0.546 -1.94,0.586 -0.127,0.017 -0.256,0.029 -0.386,0.035 -0.124,0.015 -0.249,0.025 -0.376,0.03 -0.126,0.014 -0.253,0.024 -0.382,0.027 -0.127,0.013 -0.255,0.021 -0.384,0.023 -0.135,0.013 -0.272,0.02 -0.41,0.02 -0.032,0.001 -0.064,0.003 -0.096,0.004 -0.067,0.004 -0.133,0.007 -0.2,0.01 -0.005,0 -0.009,0 -0.014,0 -0.01,0.001 -0.019,0.001 -0.028,0.001 -0.099,0.004 -0.198,0.007 -0.297,0.011 -0.014,0 -0.027,0.001 -0.042,0.001 v 0 c -0.085,0.003 -0.17,0.005 -0.255,0.007 -0.016,0 -0.032,0.001 -0.048,0.001 -0.013,0 -0.025,0 -0.037,0.001 -0.085,0.001 -0.17,0.003 -0.255,0.004 h -0.02 c -0.005,0 -0.01,0 -0.015,0 -0.017,0 -0.034,0.001 -0.051,0.001 C 0.258,0 0.173,0 0.087,0 H 0.069 C 0.046,0 0.023,0 0,0" /></g><g
             transform="translate(186.5195,333.0239)"
             id="g50"><path
               id="path52"
               style="fill:#2c2c2c;fill-opacity:1;fill-rule:nonzero;stroke:none"
               d="m 0,0 c 3.044,-0.45 6.054,-1.181 8.914,-2.321 1.524,-0.68 2.989,-1.487 4.343,-2.465 0.729,-0.603 1.41,-1.26 2.021,-1.982 0.362,-0.516 0.684,-1.056 0.961,-1.621 0.176,-0.495 0.315,-1 0.416,-1.515 0.038,-0.528 0.036,-1.055 -0.004,-1.583 -0.07,-0.367 -0.158,-0.73 -0.261,-1.091 v -0.002 c -0.084,-0.279 -0.177,-0.555 -0.279,-0.828 -0.437,-0.925 -0.969,-1.799 -1.57,-2.628 -1.12,-1.364 -2.402,-2.583 -3.777,-3.689 -0.384,-0.286 -0.775,-0.564 -1.17,-0.834 -0.511,-0.347 -1.03,-0.682 -1.555,-1.004 -1.764,-1.079 -3.608,-2.019 -5.503,-2.845 -1.803,-0.735 -3.642,-1.37 -5.512,-1.914 -0.214,-0.063 -0.43,-0.124 -0.646,-0.184 -2.5,-0.693 -5.043,-1.224 -7.609,-1.604 -0.007,-0.001 -0.014,-0.002 -0.02,-0.003 -0.036,-0.005 -0.071,-0.01 -0.106,-0.015 -0.018,-0.003 -0.037,-0.006 -0.055,-0.008 -0.017,-0.003 -0.035,-0.005 -0.052,-0.008 -1.674,-0.208 -3.357,-0.351 -5.043,-0.424 -0.012,-10e-4 -0.024,-0.002 -0.036,-0.002 -0.01,-0.001 -0.019,-0.001 -0.027,-0.001 -0.555,-0.024 -1.11,-0.039 -1.665,-0.048 -2.487,-0.036 -4.976,0.085 -7.447,0.386 -3.056,0.449 -6.077,1.183 -8.948,2.33 -1.517,0.677 -2.98,1.482 -4.327,2.457 -0.261,0.215 -0.515,0.437 -0.764,0.666 -0.446,0.416 -0.868,0.856 -1.261,1.322 -0.091,0.128 -0.18,0.259 -0.266,0.391 0,0.001 -0.001,0.001 -0.001,0.002 -10e-4,0.002 -0.002,0.003 -0.003,0.004 -0.253,0.395 -0.482,0.801 -0.687,1.221 -0.176,0.492 -0.315,0.996 -0.416,1.509 -0.039,0.526 -0.037,1.053 0.003,1.579 0.127,0.66 0.311,1.305 0.544,1.935 0.439,0.925 0.971,1.798 1.572,2.628 1.119,1.362 2.401,2.58 3.776,3.685 2.534,1.884 5.318,3.413 8.211,4.675 4.488,1.832 9.213,3.049 14.009,3.741 C -9.519,0.498 -4.727,0.576 0,0 m -18.861,7.932 c -2.168,-0.39 -4.314,-0.899 -6.427,-1.52 -2.398,-0.705 -4.716,-1.6 -7.015,-2.578 -2.028,-0.861 -3.997,-1.863 -5.876,-3.014 -0.951,-0.581 -1.873,-1.209 -2.766,-1.876 -1.135,-0.848 -2.249,-1.725 -3.289,-2.689 -1.472,-1.365 -2.77,-2.93 -3.897,-4.588 -0.463,-0.683 -0.871,-1.402 -1.223,-2.148 -0.467,-0.993 -0.898,-2.023 -1.192,-3.083 -0.1,-0.356 -0.176,-0.719 -0.24,-1.083 -0.133,-0.761 -0.236,-1.533 -0.287,-2.305 -0.071,-1.085 0.091,-2.146 0.242,-3.218 0.114,-0.81 0.337,-1.599 0.639,-2.358 0.392,-0.988 0.811,-1.951 1.376,-2.85 0.013,-0.022 0.026,-0.043 0.04,-0.064 0.003,-0.005 0.006,-0.01 0.01,-0.015 0.003,-0.004 0.006,-0.009 0.009,-0.013 0.005,-0.008 0.009,-0.015 0.014,-0.022 0.823,-1.257 1.796,-2.45 2.899,-3.473 0.038,-0.035 0.076,-0.069 0.115,-0.103 0.747,-0.674 1.55,-1.288 2.362,-1.882 0.65,-0.475 1.332,-0.906 2.031,-1.306 0.822,-0.47 1.676,-0.888 2.544,-1.266 1.237,-0.538 2.48,-1.047 3.759,-1.473 1.901,-0.632 3.857,-1.096 5.829,-1.44 2.365,-0.411 4.762,-0.69 7.159,-0.818 2.187,-0.117 4.38,-0.1 6.567,0.033 l 0.028,10e-4 c 0.086,0.006 0.171,0.011 0.257,0.016 0.005,0.001 0.009,0.001 0.014,0.001 0.019,10e-4 0.037,0.003 0.056,0.004 0.05,0.003 0.1,0.007 0.149,0.01 h 0.002 c 0.02,0.001 0.041,0.003 0.062,0.004 h 0.004 c 0.046,0.004 0.093,0.007 0.138,0.011 0.594,0.043 1.186,0.094 1.778,0.152 h 0.003 c 0.035,0.004 0.07,0.008 0.106,0.012 0.024,0.002 0.047,0.004 0.07,0.007 10e-4,0 10e-4,0 0.002,0 2.274,0.236 4.538,0.561 6.778,0.999 1.679,0.326 3.346,0.714 4.997,1.18 0.007,0.002 0.013,0.004 0.019,0.005 0.003,10e-4 0.005,0.002 0.008,0.003 h 10e-4 c 0,0 0.001,0 0.002,0 0.417,0.119 0.832,0.243 1.247,0.371 0.251,0.076 0.501,0.155 0.751,0.236 2.371,0.762 4.69,1.697 6.951,2.738 1.165,0.537 2.309,1.123 3.422,1.76 0.02,0.011 0.039,0.022 0.058,0.033 0.017,0.01 0.034,0.019 0.052,0.029 0.023,0.014 0.047,0.028 0.071,0.042 0.015,0.008 0.028,0.016 0.042,0.024 0.112,0.065 0.224,0.131 0.337,0.198 0.461,0.273 0.915,0.554 1.364,0.845 0.015,0.009 0.028,0.018 0.042,0.027 0.03,0.02 0.062,0.04 0.092,0.06 0.021,0.014 0.044,0.029 0.065,0.043 0.121,0.08 0.243,0.161 0.364,0.243 0.186,0.126 0.372,0.253 0.556,0.383 0.009,0.007 0.018,0.014 0.028,0.021 0.948,0.669 1.869,1.379 2.767,2.114 0.982,0.803 1.908,1.675 2.765,2.612 2.124,2.328 3.856,5.007 4.78,8.036 0.012,0.036 0.023,0.072 0.033,0.109 0.154,0.538 0.274,1.082 0.355,1.637 0.134,0.935 0.265,1.857 0.252,2.802 -0.013,0.845 -0.152,1.692 -0.279,2.523 -0.053,0.355 -0.132,0.707 -0.225,1.054 -0.104,0.39 -0.235,0.771 -0.383,1.146 -0.281,0.713 -0.578,1.428 -0.937,2.108 -0.552,1.049 -1.299,1.995 -2.047,2.907 C 20.874,0.074 20.132,0.781 19.345,1.425 18.291,2.289 17.194,3.1 16.024,3.799 15.133,4.332 14.202,4.798 13.254,5.22 11.926,5.81 10.578,6.354 9.198,6.809 7.265,7.444 5.275,7.904 3.27,8.243 0.764,8.667 -1.771,8.947 -4.312,9.052 -5.077,9.084 -5.843,9.1 -6.609,9.1 c -4.106,0 -8.215,-0.442 -12.252,-1.168" /></g><g
             transform="translate(198.376,359.3169)"
             id="g54"><path
               id="path56"
               style="fill:#2c2c2c;fill-opacity:1;fill-rule:nonzero;stroke:none"
               d="M 0,0 C -0.841,-0.841 -1.225,-1.906 -1.275,-3.077 -1.295,-3.542 -1.31,-4.006 -1.32,-4.472 -1.32,-4.49 -1.321,-4.509 -1.321,-4.528 -1.322,-4.574 -1.323,-4.621 -1.324,-4.667 -1.325,-4.749 -1.326,-4.83 -1.328,-4.912 -1.329,-5.013 -1.33,-5.113 -1.331,-5.214 V -5.218 C -1.332,-5.232 -1.332,-5.246 -1.332,-5.26 -1.333,-5.337 -1.333,-5.414 -1.333,-5.49 V -5.535 -5.571 C -1.334,-5.59 -1.334,-5.609 -1.334,-5.628 v -0.277 c 0,-0.019 0,-0.038 0.001,-0.057 0.003,-0.735 0.018,-1.469 0.044,-2.203 0,-0.021 10e-4,-0.043 0.002,-0.064 0.002,-0.044 0.004,-0.089 0.005,-0.134 0.002,-0.033 0.003,-0.067 0.005,-0.1 0,-0.012 10e-4,-0.024 10e-4,-0.036 0.003,-0.061 0.005,-0.123 0.007,-0.184 10e-4,-0.007 10e-4,-0.015 0.002,-0.022 0.003,-0.08 0.007,-0.16 0.011,-0.24 v -0.002 c 0,-0.011 0.001,-0.022 0.001,-0.033 l 0.009,-0.161 c 0.004,-0.067 0.007,-0.132 0.011,-0.199 0,-0.006 0,-0.012 0.001,-0.017 0,-0.01 10e-4,-0.019 10e-4,-0.029 0.006,-0.109 0.012,-0.217 0.019,-0.326 v -0.005 c 0.048,-0.768 0.108,-1.535 0.178,-2.303 v 0 c 0.002,-0.014 0.003,-0.027 0.004,-0.041 0.007,-0.066 0.012,-0.132 0.019,-0.199 0,-0.003 10e-4,-0.007 10e-4,-0.011 0.016,-0.156 0.032,-0.312 0.048,-0.469 0,-0.003 0.001,-0.007 0.001,-0.011 0.001,-0.011 0.003,-0.022 0.004,-0.034 v -0.002 c 0.006,-0.054 0.012,-0.108 0.017,-0.161 0.005,-0.051 0.01,-0.101 0.016,-0.152 0.001,-0.004 0.001,-0.008 0.002,-0.012 0.002,-0.019 0.004,-0.038 0.006,-0.057 v -0.003 c 0.105,-0.936 0.224,-1.871 0.355,-2.804 0.004,-0.253 0.033,-0.507 0.083,-0.761 0.022,-0.206 0.059,-0.412 0.111,-0.619 0.019,-0.286 0.068,-0.572 0.144,-0.858 0.013,-0.071 0.025,-0.141 0.037,-0.212 0,-0.002 0.001,-0.004 0.001,-0.006 0.006,-0.042 0.013,-0.084 0.021,-0.125 v -0.001 c 0.104,-0.606 0.215,-1.21 0.333,-1.812 0.022,-0.178 0.057,-0.356 0.103,-0.533 0.021,-0.138 0.05,-0.275 0.085,-0.413 0.025,-0.147 0.057,-0.295 0.097,-0.442 0.008,-0.037 0.016,-0.074 0.024,-0.111 0.006,-0.029 0.012,-0.058 0.019,-0.088 0.002,-0.01 0.004,-0.02 0.007,-0.03 0.214,-0.974 0.445,-1.944 0.695,-2.909 0.003,-0.014 0.007,-0.027 0.01,-0.041 0.004,-0.012 0.007,-0.024 0.01,-0.036 10e-4,-0.005 0.002,-0.009 0.004,-0.014 10e-4,-0.004 0.002,-0.009 0.003,-0.013 0.024,-0.094 0.049,-0.187 0.074,-0.28 l 0.014,-0.056 c 0.017,-0.064 0.035,-0.127 0.051,-0.191 0.015,-0.053 0.029,-0.105 0.042,-0.158 l 0.018,-0.06 c 0.32,-1.177 0.666,-2.347 1.038,-3.509 0.005,-0.016 0.01,-0.031 0.015,-0.046 0.003,-0.012 0.007,-0.024 0.011,-0.035 l 0.085,-0.264 c 0.007,-0.021 0.015,-0.043 0.022,-0.064 0.002,-0.005 0.004,-0.01 0.005,-0.015 0.005,-0.02 0.012,-0.039 0.018,-0.058 0.029,-0.087 0.058,-0.174 0.086,-0.261 0.012,-0.035 0.024,-0.071 0.035,-0.106 l 0.012,-0.034 c 0.058,-0.171 0.114,-0.341 0.173,-0.511 l 0.035,-0.104 c 0.018,-0.051 0.035,-0.102 0.053,-0.153 0.004,-0.011 0.008,-0.023 0.011,-0.034 0.046,-0.133 0.093,-0.267 0.139,-0.399 0,-10e-4 10e-4,-10e-4 10e-4,-0.002 0.009,-0.027 0.019,-0.055 0.028,-0.081 0.009,-0.024 0.017,-0.047 0.026,-0.071 0,-0.002 10e-4,-0.004 0.002,-0.006 0,-0.002 10e-4,-0.004 0.002,-0.005 0.011,-0.034 0.023,-0.067 0.035,-0.101 0,0 10e-4,-0.001 10e-4,-0.002 0.019,-0.054 0.038,-0.108 0.057,-0.162 0.024,-0.066 0.048,-0.133 0.072,-0.199 0.001,-0.001 0.001,-0.001 0.001,-0.002 0.04,-0.112 0.081,-0.224 0.122,-0.337 0.035,-0.095 0.069,-0.19 0.104,-0.285 0.007,-0.017 0.013,-0.034 0.02,-0.051 0.006,-0.015 0.011,-0.031 0.016,-0.046 0.02,-0.052 0.04,-0.104 0.059,-0.157 0,0 0.001,-10e-4 0.001,-0.002 1.051,-2.814 2.23,-5.585 3.55,-8.284 0.077,-0.189 0.169,-0.375 0.274,-0.557 0.032,-0.064 0.064,-0.128 0.096,-0.192 l 0.041,-0.082 c 0.068,-0.156 0.146,-0.309 0.233,-0.46 0.037,-0.071 0.074,-0.142 0.111,-0.213 0.002,-0.005 0.005,-0.01 0.007,-0.015 0.002,-0.005 0.005,-0.01 0.007,-0.015 0.542,-1.046 1.106,-2.081 1.693,-3.102 0.011,-0.021 0.024,-0.042 0.037,-0.063 2.032,-3.513 4.357,-6.83 6.903,-9.991 2.33,-2.894 4.912,-5.589 7.742,-7.995 10e-4,-10e-4 0.002,-0.002 0.003,-0.004 l 0.076,-0.064 c 0.969,-0.817 1.963,-1.604 2.978,-2.364 0.224,-0.205 0.471,-0.387 0.741,-0.547 0.033,-0.024 0.068,-0.049 0.101,-0.074 0.001,0 0.002,0 0.002,0 0.922,-0.666 1.867,-1.298 2.836,-1.895 l 0.038,-0.023 c 0.02,-0.012 0.04,-0.025 0.059,-0.036 0.015,-0.009 0.029,-0.018 0.043,-0.027 0.019,-0.011 0.038,-0.023 0.057,-0.034 0.564,-0.341 1.136,-0.668 1.715,-0.983 0.014,-0.008 0.03,-0.016 0.045,-0.024 0.036,-0.02 0.074,-0.04 0.111,-0.06 0.013,-0.007 0.024,-0.013 0.037,-0.02 0.027,-0.014 0.052,-0.028 0.078,-0.041 0.016,-0.009 0.032,-0.018 0.048,-0.027 0.033,-0.017 0.067,-0.034 0.1,-0.051 0.049,-0.026 0.097,-0.052 0.147,-0.077 0.009,-0.005 0.019,-0.01 0.029,-0.016 0.069,-0.036 0.137,-0.071 0.207,-0.106 10e-4,-0.001 10e-4,-0.001 0.002,-0.001 0.003,-0.002 0.006,-0.003 0.01,-0.005 0.019,-0.01 0.037,-0.02 0.057,-0.03 0.037,-0.018 0.074,-0.037 0.111,-0.056 l 0.04,-0.02 c 0.01,-0.005 0.02,-0.01 0.03,-0.015 10e-4,0 10e-4,0 10e-4,-0.001 0.667,-0.333 1.342,-0.647 2.028,-0.941 0.001,0 0.002,-10e-4 0.003,-0.002 0.195,-0.083 0.389,-0.165 0.585,-0.248 0.313,-0.181 0.65,-0.321 1.009,-0.422 0.015,-0.006 0.029,-0.011 0.043,-0.017 l 0.059,-0.023 0.003,-0.002 c 0.578,-0.231 1.161,-0.448 1.75,-0.647 0.03,-0.01 0.061,-0.021 0.091,-0.031 0.067,-0.022 0.135,-0.044 0.201,-0.066 0.002,-10e-4 0.003,-10e-4 0.005,-0.002 0.024,-0.008 0.048,-0.016 0.072,-0.024 0.073,-0.023 0.146,-0.046 0.218,-0.069 10e-4,0 0.002,-0.001 0.003,-0.001 0.019,-0.006 0.038,-0.012 0.057,-0.018 0.073,-0.023 0.145,-0.046 0.217,-0.067 0.021,-0.007 0.041,-0.013 0.062,-0.02 0.072,-0.021 0.144,-0.043 0.217,-0.064 0.017,-0.005 0.034,-0.01 0.05,-0.015 0.828,-0.241 1.665,-0.447 2.511,-0.617 0.386,-0.052 0.772,-0.103 1.157,-0.156 0.786,0.003 1.518,0.201 2.197,0.595 0.973,0.569 1.701,1.513 2,2.601 0.309,1.123 0.149,2.348 -0.439,3.353 -0.226,0.294 -0.453,0.588 -0.681,0.881 -0.543,0.54 -1.182,0.913 -1.919,1.119 -0.907,0.182 -1.803,0.406 -2.688,0.67 -0.102,0.031 -0.204,0.062 -0.306,0.093 -0.053,0.017 -0.108,0.034 -0.162,0.051 -0.141,0.046 -0.282,0.091 -0.424,0.138 -0.359,0.12 -0.715,0.246 -1.071,0.379 -0.252,0.127 -0.518,0.23 -0.8,0.309 -0.562,0.249 -1.12,0.512 -1.671,0.787 -0.111,0.057 -0.221,0.113 -0.333,0.17 -0.117,0.06 -0.234,0.121 -0.351,0.183 -0.077,0.041 -0.153,0.082 -0.231,0.123 -0.643,0.346 -1.276,0.709 -1.901,1.088 -0.801,0.488 -1.584,1.001 -2.352,1.538 -0.191,0.161 -0.397,0.307 -0.618,0.438 -0.004,0.003 -0.008,0.006 -0.012,0.009 -0.009,0.007 -0.018,0.013 -0.027,0.02 -0.244,0.177 -0.486,0.356 -0.726,0.538 -0.43,0.339 -0.853,0.686 -1.272,1.038 -0.012,0.01 -0.023,0.02 -0.035,0.03 -3.074,2.607 -5.846,5.552 -8.338,8.718 -1.87,2.468 -3.573,5.058 -5.116,7.743 -0.496,0.867 -0.976,1.743 -1.44,2.628 -0.057,0.126 -0.123,0.25 -0.193,0.373 -0.029,0.057 -0.058,0.114 -0.089,0.172 -0.014,0.028 -0.029,0.058 -0.045,0.087 -0.066,0.152 -0.142,0.303 -0.228,0.451 -0.024,0.046 -0.046,0.091 -0.07,0.138 -0.011,0.024 -0.024,0.049 -0.037,0.074 -0.674,1.354 -1.31,2.726 -1.909,4.115 -0.409,0.989 -0.799,1.985 -1.17,2.989 v 0.001 c -0.011,0.033 -0.024,0.065 -0.036,0.098 v 0.002 c -0.014,0.036 -0.026,0.071 -0.04,0.108 -0.015,0.041 -0.03,0.083 -0.046,0.124 l -0.091,0.252 c -0.06,0.17 -0.121,0.34 -0.181,0.511 -0.048,0.135 -0.095,0.27 -0.143,0.405 -0.043,0.126 -0.087,0.253 -0.13,0.379 -0.04,0.117 -0.079,0.234 -0.118,0.35 -0.006,0.016 -0.011,0.031 -0.015,0.045 -0.001,0.004 -0.002,0.007 -0.003,0.01 -0.059,0.174 -0.117,0.348 -0.174,0.523 -10e-4,0.005 -0.003,0.01 -0.005,0.015 l -0.094,0.287 c -0.017,0.057 -0.036,0.114 -0.055,0.171 -10e-4,0.003 -0.002,0.006 -0.003,0.01 -0.415,1.295 -0.798,2.602 -1.148,3.918 0,0 -10e-4,0.002 -10e-4,0.003 -0.031,0.117 -0.061,0.234 -0.093,0.351 -0.226,0.873 -0.438,1.75 -0.635,2.63 -0.021,0.111 -0.044,0.222 -0.073,0.332 -0.023,0.135 -0.052,0.268 -0.089,0.403 -0.003,0.014 -0.006,0.029 -0.009,0.044 -0.026,0.166 -0.06,0.332 -0.105,0.497 -0.007,0.036 -0.014,0.072 -0.021,0.107 -0.002,0.011 -0.005,0.022 -0.007,0.032 -0.108,0.529 -0.21,1.059 -0.307,1.59 -0.021,0.252 -0.065,0.505 -0.131,0.757 -0.014,0.207 -0.043,0.413 -0.087,0.62 -0.024,0.243 -0.068,0.486 -0.133,0.729 -0.004,0.022 -0.007,0.043 -0.01,0.065 -0.004,0.021 -0.007,0.043 -0.01,0.065 -0.027,0.182 -0.054,0.363 -0.08,0.546 -0.037,0.294 -0.072,0.588 -0.106,0.883 v 0.002 l -0.044,0.397 c -0.021,0.188 -0.04,0.377 -0.059,0.565 0,0.002 -0.001,0.004 -0.001,0.007 l -0.035,0.361 c -0.077,0.826 -0.14,1.653 -0.189,2.48 -0.003,0.057 -0.006,0.115 -0.009,0.172 -0.003,0.046 -0.006,0.091 -0.008,0.137 -0.001,0.01 -0.001,0.02 -0.002,0.03 -0.011,0.204 -0.02,0.408 -0.029,0.612 0,0.012 -10e-4,0.024 -10e-4,0.036 -0.002,0.041 -0.004,0.083 -0.006,0.124 -0.035,0.875 -0.054,1.75 -0.055,2.625 v 0.381 c 0.002,0.181 0.003,0.362 0.006,0.544 v 0.005 0.006 0.023 c 0.01,0.595 0.026,1.189 0.052,1.783 C 7.478,-1.952 6.938,-0.784 6.154,0 5.342,0.813 4.227,1.275 3.077,1.275 1.927,1.275 0.812,0.813 0,0" /></g><g
             transform="translate(203.751,365.8394)"
             id="g58"><path
               id="path60"
               style="fill:#2c2c2c;fill-opacity:1;fill-rule:nonzero;stroke:none"
               d="m 0,0 c -0.126,-0.046 -0.252,-0.091 -0.379,-0.136 -0.11,-0.038 -0.22,-0.076 -0.33,-0.113 H -0.71 C -0.778,-0.271 -0.848,-0.294 -0.916,-0.316 -0.978,-0.335 -1.038,-0.355 -1.1,-0.374 -1.213,-0.409 -1.326,-0.443 -1.439,-0.477 -1.521,-0.5 -1.603,-0.523 -1.685,-0.547 L -1.951,-0.62 C -2.056,-0.647 -2.16,-0.674 -2.265,-0.701 -2.323,-0.715 -2.383,-0.73 -2.442,-0.744 -2.751,-0.818 -3.062,-0.885 -3.373,-0.946 -3.525,-0.959 -3.678,-0.98 -3.83,-1.01 -4.011,-1.029 -4.191,-1.06 -4.372,-1.102 -4.893,-1.15 -5.414,-1.181 -5.937,-1.195 c -0.006,0 -0.012,0 -0.017,0 -0.017,-10e-4 -0.034,-10e-4 -0.051,-0.002 h -0.001 c -0.139,-0.003 -0.277,-0.004 -0.417,-0.005 -0.101,0 -0.203,0 -0.305,10e-4 -0.672,0.007 -1.342,0.041 -2.012,0.101 -0.386,-0.052 -0.771,-0.104 -1.156,-0.155 -0.738,-0.207 -1.378,-0.58 -1.921,-1.12 -0.813,-0.813 -1.275,-1.928 -1.275,-3.078 0,-1.149 0.462,-2.264 1.275,-3.077 0.294,-0.227 0.587,-0.453 0.88,-0.68 0.679,-0.394 1.412,-0.592 2.197,-0.595 0.639,-0.057 1.28,-0.091 1.922,-0.1 0.021,0 0.042,0 0.063,0 0.045,-0.001 0.09,-0.002 0.137,-0.002 0.024,0 0.05,0 0.075,10e-4 0.021,-10e-4 0.04,-10e-4 0.061,-10e-4 0.058,0 0.116,0 0.174,10e-4 0.018,0 0.036,0 0.053,0.001 0.015,0 0.029,0 0.045,0 0.064,10e-4 0.127,0.002 0.19,0.004 0.008,0 0.015,0 0.023,0 0.007,0 0.014,10e-4 0.02,10e-4 0.027,0 0.053,0.001 0.08,0.002 0.043,10e-4 0.087,0.002 0.13,0.003 0.026,10e-4 0.05,0.002 0.076,0.003 0.035,10e-4 0.069,0.003 0.104,0.005 0.514,0.021 1.026,0.058 1.538,0.114 h 0.005 c 0.078,0.008 0.156,0.017 0.235,0.027 0.003,0 0.006,0 0.009,0.001 0.008,10e-4 0.015,0.002 0.023,0.003 h 0.002 c 0.059,0.007 0.118,0.014 0.177,0.022 0.032,0.004 0.063,0.008 0.094,0.012 0.244,0 0.488,0.021 0.733,0.063 0.229,0.025 0.458,0.068 0.689,0.13 0.079,0.011 0.158,0.023 0.237,0.036 0.002,0 0.003,0 0.004,10e-4 0.5,0.08 0.998,0.176 1.492,0.289 0.041,0.009 0.083,0.018 0.125,0.028 0.06,0.015 0.12,0.029 0.18,0.044 0.027,0.007 0.056,0.013 0.083,0.02 0.071,0.018 0.143,0.036 0.214,0.055 l 0.05,0.013 c 0.064,0.017 0.131,0.034 0.195,0.052 l 0.038,0.011 c 0.01,0.002 0.019,0.005 0.028,0.008 0.054,0.014 0.109,0.029 0.164,0.045 0.007,0.002 0.015,0.005 0.023,0.007 0.024,0.007 0.05,0.014 0.074,0.021 0.055,0.016 0.11,0.032 0.163,0.049 0.015,0.004 0.03,0.008 0.043,0.012 0.019,0.006 0.037,0.011 0.055,0.017 0.03,0.009 0.06,0.018 0.09,0.027 0.046,0.014 0.092,0.029 0.137,0.043 0.027,0.008 0.053,0.017 0.08,0.026 0.052,0.016 0.104,0.033 0.156,0.05 0.009,0.003 0.018,0.006 0.028,0.009 0.009,0.004 0.019,0.006 0.028,0.009 0.076,0.026 0.151,0.051 0.226,0.077 l 0.003,0.002 c 0.01,0.002 0.02,0.006 0.029,0.009 l 0.009,0.003 c 0.072,0.026 0.145,0.051 0.217,0.077 0.003,10e-4 0.006,0.002 0.009,0.003 0.005,0.002 0.009,0.004 0.014,0.006 0.003,10e-4 0.006,0.002 0.009,0.002 0.065,0.024 0.129,0.047 0.193,0.071 0.347,0.146 0.693,0.292 1.04,0.438 0.654,0.388 1.174,0.908 1.561,1.562 0.588,1.005 0.748,2.23 0.439,3.353 -0.299,1.088 -1.027,2.032 -2,2.602 C 3.007,-0.292 2.661,-0.146 2.314,0 1.929,0.104 1.543,0.156 1.157,0.156 0.771,0.156 0.386,0.104 0,0" /></g><g
             transform="translate(197.9121,364.647)"
             id="g62"><path
               id="path64"
               style="fill:#2c2c2c;fill-opacity:1;fill-rule:nonzero;stroke:none"
               d="m 0,0 c -0.117,-0.003 -0.233,-0.006 -0.351,-0.008 -0.069,-10e-4 -0.137,-10e-4 -0.207,-0.002 -0.074,0 -0.148,0 -0.221,0 h -0.057 c -0.024,0.001 -0.049,0.001 -0.073,0.001 h -0.003 c -0.275,0.003 -0.551,0.01 -0.825,0.022 -1.127,0.047 -2.293,-0.49 -3.078,-1.275 -0.813,-0.812 -1.275,-1.927 -1.275,-3.077 0,-1.149 0.462,-2.265 1.275,-3.078 0.839,-0.839 1.907,-1.226 3.078,-1.274 0.256,-0.011 0.511,-0.018 0.767,-0.022 0.018,0 0.035,0 0.053,0 0.081,-0.001 0.162,-0.002 0.243,-0.002 h 0.001 0.029 c 0.031,10e-4 0.061,10e-4 0.091,10e-4 0.05,0 0.099,0.001 0.148,0.001 0.015,0 0.031,10e-4 0.047,10e-4 0.003,0 0.006,0 0.01,0 0.06,10e-4 0.12,0.002 0.181,0.003 0.014,10e-4 0.026,10e-4 0.04,10e-4 0.01,0 0.019,0 0.028,0 0.082,0.003 0.164,0.005 0.246,0.008 0.04,10e-4 0.081,0.003 0.12,0.006 0.33,0.013 0.66,0.034 0.989,0.061 0.386,0.051 0.771,0.104 1.157,0.155 0.737,0.207 1.378,0.581 1.921,1.12 0.812,0.812 1.274,1.927 1.274,3.077 0,1.15 -0.462,2.265 -1.274,3.078 C 4.04,-0.977 3.746,-0.75 3.453,-0.523 2.774,-0.129 2.042,0.069 1.256,0.071 0.838,0.037 0.42,0.013 0,0" /></g><g
             transform="translate(199.9492,364.8359)"
             id="g66"><path
               id="path68"
               style="fill:#2c2c2c;fill-opacity:1;fill-rule:nonzero;stroke:none"
               d="M 0,0 C -0.167,-0.021 -0.333,-0.051 -0.5,-0.091 -1.01,-0.14 -1.521,-0.173 -2.034,-0.189 -3.2,-0.227 -4.277,-0.63 -5.111,-1.464 c -0.813,-0.812 -1.276,-1.927 -1.276,-3.077 0,-2.315 1.981,-4.428 4.353,-4.352 0.597,0.018 1.194,0.06 1.788,0.123 h 0.004 c 0.081,0.009 0.162,0.019 0.243,0.028 l 0.02,0.003 h 10e-4 0.004 l 0.118,0.014 c 0.051,0.007 0.102,0.014 0.154,0.02 0.244,0 0.487,0.021 0.73,0.063 0.231,0.025 0.461,0.068 0.692,0.13 0.066,0.01 0.134,0.02 0.2,0.031 0.347,0.146 0.693,0.292 1.039,0.439 0.654,0.386 1.175,0.907 1.562,1.561 0.588,1.005 0.749,2.23 0.439,3.353 -0.3,1.087 -1.027,2.032 -2.001,2.601 C 2.613,-0.38 2.267,-0.234 1.92,-0.088 1.534,0.016 1.148,0.067 0.763,0.067 0.509,0.067 0.254,0.045 0,0" /></g><g
             transform="translate(200.4199,364.9004)"
             id="g70"><path
               id="path72"
               style="fill:#2c2c2c;fill-opacity:1;fill-rule:nonzero;stroke:none"
               d="m 0,0 c -0.013,-0.002 -0.026,-0.005 -0.039,-0.007 -0.144,-0.013 -0.287,-0.032 -0.431,-0.058 -0.176,-0.02 -0.351,-0.052 -0.527,-0.093 -0.355,-0.034 -0.71,-0.06 -1.066,-0.078 -0.386,-0.052 -0.772,-0.104 -1.158,-0.156 -0.737,-0.206 -1.377,-0.58 -1.92,-1.119 -0.812,-0.812 -1.274,-1.927 -1.274,-3.077 0,-1.15 0.462,-2.266 1.274,-3.078 0.779,-0.778 1.957,-1.332 3.078,-1.274 0.449,0.023 0.897,0.058 1.344,0.106 h 0.006 c 0.039,0.004 0.077,0.008 0.116,0.013 0.05,0.006 0.101,0.011 0.152,0.018 h 0.001 c 0.078,0.01 0.156,0.019 0.235,0.029 0.004,10e-4 0.008,0.002 0.013,0.002 l 0.023,0.003 c 0.244,0 0.488,0.021 0.733,0.063 0.229,0.025 0.459,0.068 0.689,0.13 0.005,0.001 0.01,0.001 0.015,0.002 0.073,0.011 0.146,0.022 0.218,0.033 0.001,0 0.003,0.001 0.004,0.001 0.277,0.044 0.553,0.093 0.828,0.146 0.347,0.146 0.694,0.293 1.04,0.439 0.654,0.387 1.174,0.908 1.561,1.562 0.588,1.005 0.748,2.23 0.439,3.353 -0.299,1.088 -1.027,2.032 -2,2.601 C 3.008,-0.293 2.661,-0.146 2.314,0 1.929,0.104 1.543,0.155 1.157,0.155 0.771,0.155 0.386,0.104 0,0" /></g><g
             transform="translate(199.4072,364.7412)"
             id="g74"><path
               id="path76"
               style="fill:#2c2c2c;fill-opacity:1;fill-rule:nonzero;stroke:none"
               d="m 0,0 c -0.49,-0.046 -0.981,-0.077 -1.475,-0.093 -0.129,-0.004 -0.257,-0.007 -0.387,-0.009 -0.052,-0.001 -0.104,-0.002 -0.157,-0.002 -0.092,0 -0.185,0 -0.278,0 h -0.004 c -0.516,0.003 -1.034,0.023 -1.55,0.058 -1.109,0.076 -2.31,-0.508 -3.077,-1.274 -0.812,-0.813 -1.274,-1.929 -1.274,-3.078 0,-1.15 0.462,-2.265 1.274,-3.077 0.294,-0.228 0.588,-0.454 0.881,-0.681 0.679,-0.394 1.411,-0.592 2.196,-0.594 0.451,-0.031 0.903,-0.05 1.354,-0.056 0.028,-0.001 0.057,-0.002 0.086,-0.002 0.02,0 0.041,0 0.061,0 h 0.037 0.04 0.005 c 0.019,0 0.038,-10e-4 0.057,-10e-4 h 0.072 c 0.069,0 0.137,10e-4 0.204,10e-4 0.023,0 0.044,10e-4 0.066,10e-4 h 0.003 c 0.007,0.001 0.013,0.001 0.02,0.001 0.029,0 0.056,10e-4 0.083,10e-4 0.045,10e-4 0.09,10e-4 0.135,0.002 0.022,0.001 0.042,0.002 0.064,0.002 0.069,0.002 0.138,0.005 0.209,0.007 0.06,0.002 0.12,0.005 0.179,0.009 1.12,0.055 2.223,0.2 3.337,0.354 0.347,0.146 0.693,0.292 1.04,0.438 0.653,0.388 1.174,0.908 1.562,1.561 0.588,1.006 0.748,2.23 0.438,3.354 -0.3,1.088 -1.027,2.032 -2,2.601 -0.347,0.146 -0.693,0.292 -1.04,0.439 C 1.775,0.065 1.39,0.117 1.004,0.117 0.67,0.117 0.335,0.078 0,0" /></g><g
             transform="translate(191.2227,364.3418)"
             id="g78"><path
               id="path80"
               style="fill:#2c2c2c;fill-opacity:1;fill-rule:nonzero;stroke:none"
               d="m 0,0 c -0.973,-0.57 -1.701,-1.514 -2,-2.601 -0.31,-1.124 -0.149,-2.349 0.438,-3.354 0.227,-0.294 0.455,-0.587 0.681,-0.88 0.543,-0.54 1.184,-0.914 1.921,-1.12 0.29,-0.044 0.582,-0.087 0.873,-0.127 0.241,-0.064 0.488,-0.106 0.74,-0.127 0.106,-0.016 0.213,-0.028 0.322,-0.036 0.197,-0.027 0.398,-0.041 0.602,-0.042 0.07,-0.006 0.141,-0.013 0.211,-0.02 h 0.001 c 0.732,-0.065 1.467,-0.101 2.202,-0.102 h 0.055 c 0.068,0 0.137,0 0.204,0.001 0.021,0 0.042,0 0.062,10e-4 0.002,0 0.004,0 0.006,0 0.079,10e-4 0.16,0.002 0.239,0.004 0.023,0.001 0.046,0.001 0.069,0.002 0.069,0.002 0.138,0.004 0.207,0.006 0.045,0.002 0.089,0.004 0.133,0.006 0.417,0.018 0.834,0.047 1.249,0.086 l 1.157,0.155 c 0.737,0.207 1.378,0.58 1.921,1.119 0.812,0.813 1.274,1.928 1.274,3.078 0,1.149 -0.462,2.264 -1.274,3.077 -0.294,0.227 -0.587,0.454 -0.882,0.681 C 9.733,0.2 9.001,0.398 8.215,0.401 7.697,0.352 7.179,0.32 6.659,0.305 6.55,0.301 6.441,0.299 6.332,0.297 6.256,0.296 6.18,0.296 6.104,0.295 5.553,0.293 5.002,0.312 4.453,0.347 4.328,0.366 4.202,0.379 4.075,0.388 4.024,0.395 3.973,0.4 3.921,0.405 3.883,0.409 3.845,0.413 3.807,0.416 3.611,0.443 3.412,0.457 3.21,0.458 L 2.196,0.594 C 1.411,0.591 0.679,0.393 0,0" /></g><g
             transform="translate(210.5312,369.8833)"
             id="g82"><path
               id="path84"
               style="fill:#2c2c2c;fill-opacity:1;fill-rule:nonzero;stroke:none"
               d="m 0,0 c -0.737,-0.207 -1.377,-0.58 -1.92,-1.119 -0.194,-0.168 -0.391,-0.332 -0.589,-0.493 -1.227,-0.896 -2.538,-1.667 -3.92,-2.297 -0.162,-0.063 -0.324,-0.125 -0.487,-0.184 -0.07,-0.026 -0.141,-0.051 -0.211,-0.076 -0.065,-0.023 -0.131,-0.045 -0.197,-0.068 -0.117,-0.04 -0.236,-0.079 -0.355,-0.117 -0.083,-0.027 -0.167,-0.053 -0.251,-0.08 -0.091,-0.027 -0.182,-0.055 -0.273,-0.082 -0.004,-0.001 -0.008,-0.002 -0.012,-0.004 -0.012,-0.002 -0.022,-0.006 -0.034,-0.009 -0.056,-0.016 -0.112,-0.033 -0.168,-0.048 -0.082,-0.023 -0.163,-0.046 -0.244,-0.068 -0.127,-0.034 -0.255,-0.067 -0.382,-0.099 -0.065,-0.016 -0.13,-0.032 -0.195,-0.048 -0.311,-0.074 -0.622,-0.141 -0.935,-0.202 -0.14,-0.011 -0.281,-0.03 -0.422,-0.056 -0.171,-0.02 -0.342,-0.051 -0.512,-0.091 -0.492,-0.047 -0.984,-0.078 -1.477,-0.094 -0.098,-0.003 -0.195,-0.006 -0.292,-0.008 -0.024,0 -0.05,0 -0.074,-10e-4 -0.088,-0.001 -0.176,-0.002 -0.264,-0.002 -0.1,0 -0.201,0 -0.302,0.001 -0.39,0.004 -0.781,0.017 -1.171,0.039 -0.113,0.016 -0.228,0.027 -0.343,0.034 -0.077,0.009 -0.156,0.016 -0.234,0.021 -0.065,0.009 -0.132,0.016 -0.198,0.022 -0.183,0.024 -0.368,0.036 -0.557,0.037 -0.307,0.049 -0.613,0.102 -0.918,0.16 -0.105,0.02 -0.209,0.041 -0.313,0.062 -0.071,0.015 -0.143,0.03 -0.214,0.045 -0.143,0.031 -0.288,0.063 -0.431,0.096 -0.49,0.112 -0.977,0.238 -1.46,0.375 -2.283,0.646 -4.728,-0.766 -5.354,-3.04 -0.31,-1.123 -0.149,-2.348 0.438,-3.353 0.574,-0.979 1.513,-1.691 2.602,-2 0.115,-0.033 0.232,-0.065 0.348,-0.097 0.026,-0.007 0.052,-0.014 0.08,-0.021 0.378,-0.101 0.758,-0.196 1.139,-0.282 0.009,-0.002 0.018,-0.004 0.026,-0.006 0.004,-10e-4 0.007,-0.002 0.01,-0.002 0.009,-0.003 0.019,-0.005 0.03,-0.007 0.023,-0.005 0.046,-0.01 0.069,-0.016 10e-4,0 0.002,0 0.003,0 0.01,-0.002 0.02,-0.004 0.03,-0.007 0,0 0.001,0 0.002,0 0.069,-0.015 0.139,-0.03 0.207,-0.045 h 0.001 c 0.014,-0.003 0.028,-0.005 0.041,-0.008 0.01,-0.003 0.019,-0.005 0.029,-0.007 0.01,-0.002 0.021,-0.004 0.031,-0.006 0.048,-0.01 0.095,-0.02 0.142,-0.029 0.002,0 0.002,-0.001 0.004,-0.001 0.032,-0.006 0.063,-0.012 0.094,-0.018 0.002,-0.001 0.004,-0.002 0.006,-0.002 0.068,-0.014 0.139,-0.027 0.208,-0.04 0.002,-0.001 0.005,-0.001 0.008,-0.001 0.594,-0.112 1.19,-0.205 1.789,-0.287 0.233,-0.061 0.473,-0.101 0.717,-0.122 0.106,-0.016 0.214,-0.028 0.322,-0.036 0.106,-0.014 0.214,-0.025 0.323,-0.032 0.182,-0.023 0.366,-0.035 0.554,-0.035 0.06,-0.005 0.118,-0.01 0.177,-0.016 10e-4,0 0.002,10e-4 0.003,10e-4 0.566,-0.046 1.132,-0.073 1.701,-0.08 0.013,0 0.026,0 0.039,0 0.023,-10e-4 0.046,-10e-4 0.068,-10e-4 h 0.051 0.093 c 0.02,-0.001 0.041,-0.001 0.061,-0.001 0.059,0 0.117,0 0.175,0.001 0.017,0 0.034,0 0.051,10e-4 0.016,0 0.031,0 0.047,0 l 0.102,0.002 c 0.012,0 0.023,0 0.034,0 0.023,10e-4 0.045,10e-4 0.069,0.002 0.022,0 0.045,10e-4 0.067,10e-4 l 0.103,0.003 c 0.022,0.001 0.045,0.002 0.067,0.003 0.028,0 0.057,0.001 0.085,0.002 0.545,0.021 1.09,0.06 1.633,0.119 h 0.006 c 0.076,0.008 0.152,0.017 0.227,0.026 0.014,0.001 0.028,0.003 0.04,0.005 h 0.002 c 0.014,0.002 0.029,0.003 0.043,0.005 0.065,0.008 0.128,0.016 0.192,0.024 0.005,10e-4 0.009,0.002 0.014,0.002 0.007,0.001 0.015,0.002 0.023,0.003 0.243,0.001 0.486,0.021 0.729,0.063 0.231,0.024 0.461,0.068 0.692,0.13 0.069,0.01 0.139,0.02 0.208,0.031 0.002,0.001 0.003,0.001 0.004,0.002 0.504,0.08 1.005,0.176 1.504,0.289 0.047,0.01 0.094,0.021 0.142,0.032 0.067,0.016 0.136,0.033 0.203,0.049 0.02,0.005 0.04,0.01 0.06,0.015 0.072,0.018 0.144,0.037 0.216,0.056 0.015,0.003 0.031,0.007 0.046,0.012 0.048,0.012 0.095,0.025 0.143,0.038 l 0.006,10e-4 c 0.018,0.005 0.038,0.011 0.057,0.015 0.014,0.005 0.029,0.009 0.044,0.013 0.004,10e-4 0.008,0.002 0.013,0.004 0.068,0.018 0.136,0.038 0.204,0.057 l 0.015,0.004 c 0.014,0.004 0.028,0.008 0.042,0.012 0.037,0.011 0.074,0.022 0.11,0.033 l 0.109,0.032 c 0.013,0.004 0.027,0.009 0.042,0.013 0.078,0.023 0.157,0.048 0.235,0.073 0.008,0.002 0.015,0.005 0.022,0.007 0.025,0.008 0.048,0.016 0.073,0.023 0.008,0.003 0.015,0.005 0.023,0.008 0.023,0.007 0.046,0.014 0.069,0.022 0.013,0.005 0.027,0.009 0.041,0.013 0.018,0.006 0.038,0.013 0.056,0.019 0.076,0.025 0.154,0.051 0.23,0.078 0.001,0 0.001,0 0.002,0.001 0.007,0.002 0.015,0.005 0.023,0.008 0.001,0 0.002,0 0.003,0 0.055,0.019 0.108,0.038 0.161,0.057 0.003,10e-4 0.006,0.002 0.008,0.003 0.028,0.01 0.056,0.02 0.083,0.03 l 0.006,0.001 c 0.038,0.014 0.075,0.028 0.112,0.041 1.563,0.574 3.098,1.251 4.536,2.09 1.512,0.881 2.923,1.961 4.245,3.103 0.228,0.294 0.454,0.587 0.681,0.881 0.394,0.679 0.592,1.411 0.595,2.196 0,1.15 -0.462,2.265 -1.276,3.078 C 3.422,-0.307 2.307,0.155 1.157,0.155 0.771,0.104 0.386,0.052 0,0" /></g><g
             transform="translate(281.9414,291.5513)"
             id="g86"><path
               id="path88"
               style="fill:#2c2c2c;fill-opacity:1;fill-rule:nonzero;stroke:none"
               d="m 0,0 c -0.821,-0.821 -1.259,-1.92 -1.274,-3.077 -10e-4,-0.044 -10e-4,-0.087 -0.002,-0.13 0,-0.047 -10e-4,-0.094 -10e-4,-0.142 C -1.278,-3.37 -1.278,-3.392 -1.278,-3.413 -1.279,-3.5 -1.279,-3.586 -1.279,-3.673 V -3.687 C -1.28,-3.708 -1.28,-3.728 -1.28,-3.749 v -0.295 c 0,-0.022 0,-0.044 0.001,-0.065 0.003,-0.762 0.021,-1.523 0.052,-2.284 0.001,-0.029 0.002,-0.057 0.004,-0.085 v -0.001 c 0.003,-0.084 0.007,-0.169 0.011,-0.253 10e-4,-0.002 10e-4,-0.004 10e-4,-0.007 0.001,-0.016 0.002,-0.032 0.003,-0.049 0,-0.01 10e-4,-0.02 10e-4,-0.03 0.001,-0.023 0.002,-0.046 0.004,-0.068 0.003,-0.078 0.008,-0.156 0.012,-0.234 v -0.006 c 0.002,-0.022 0.003,-0.045 0.004,-0.067 0.003,-0.066 0.006,-0.132 0.01,-0.197 0.001,-0.003 0.001,-0.006 0.002,-0.009 0.044,-0.734 0.1,-1.467 0.168,-2.199 V -9.601 C -1,-9.675 -0.993,-9.75 -0.985,-9.826 v -0.002 c 0.004,-0.041 0.007,-0.082 0.012,-0.124 0.008,-0.088 0.018,-0.176 0.027,-0.263 0.001,-0.005 0.001,-0.01 0.002,-0.014 0.002,-0.024 0.005,-0.047 0.007,-0.07 v -0.004 c 0.002,-0.029 0.005,-0.057 0.009,-0.085 0.006,-0.061 0.013,-0.122 0.02,-0.183 0.002,-0.017 0.004,-0.034 0.006,-0.052 v -0.005 c 0.009,-0.083 0.018,-0.165 0.028,-0.248 0.001,-0.009 0.002,-0.018 0.003,-0.026 0.089,-0.778 0.188,-1.554 0.297,-2.33 0.005,-0.247 0.031,-0.493 0.079,-0.74 0.014,-0.128 0.034,-0.255 0.059,-0.383 0.015,-0.126 0.036,-0.253 0.061,-0.38 0.025,-0.211 0.067,-0.423 0.124,-0.635 0.01,-0.06 0.02,-0.119 0.03,-0.179 v -0.001 c 0.099,-0.581 0.204,-1.161 0.318,-1.739 0.022,-0.173 0.054,-0.346 0.097,-0.518 0.025,-0.149 0.057,-0.297 0.097,-0.445 0.012,-0.058 0.024,-0.116 0.037,-0.174 0.01,-0.048 0.02,-0.095 0.03,-0.143 0.003,-0.015 0.006,-0.029 0.01,-0.044 0.211,-0.977 0.442,-1.949 0.694,-2.917 0,-0.002 0,-0.003 0,-0.005 0.002,-0.009 0.005,-0.018 0.007,-0.027 0.057,-0.215 0.114,-0.43 0.172,-0.645 0.004,-0.016 0.008,-0.031 0.013,-0.047 0.007,-0.025 0.013,-0.05 0.019,-0.075 0.004,-0.012 0.008,-0.025 0.011,-0.038 0.002,-0.006 0.003,-0.011 0.005,-0.017 0.014,-0.05 0.027,-0.1 0.041,-0.15 0.005,-0.018 0.01,-0.036 0.016,-0.054 0.235,-0.852 0.486,-1.699 0.752,-2.543 0.005,-0.017 0.01,-0.035 0.015,-0.053 0.034,-0.107 0.069,-0.214 0.104,-0.321 0.004,-0.013 0.008,-0.026 0.012,-0.039 0,-0.002 10e-4,-0.004 0.002,-0.006 0.035,-0.107 0.069,-0.214 0.104,-0.322 0.003,-0.007 0.006,-0.015 0.008,-0.023 0.016,-0.051 0.034,-0.102 0.051,-0.153 0.015,-0.048 0.031,-0.097 0.047,-0.145 0.007,-0.019 0.013,-0.039 0.02,-0.058 0.004,-0.012 0.008,-0.022 0.011,-0.034 0.031,-0.091 0.061,-0.183 0.092,-0.275 0,-0.001 10e-4,-0.002 0.002,-0.004 0.15,-0.443 0.304,-0.886 0.462,-1.327 0.147,-0.346 0.292,-0.693 0.439,-1.04 0.387,-0.653 0.907,-1.174 1.561,-1.561 1.005,-0.589 2.23,-0.748 3.354,-0.439 1.088,0.3 2.031,1.027 2.601,2 0.146,0.347 0.292,0.694 0.439,1.04 0.207,0.771 0.207,1.543 0,2.314 -0.188,0.523 -0.369,1.049 -0.547,1.577 -0.021,0.065 -0.044,0.131 -0.065,0.197 -0.057,0.171 -0.113,0.342 -0.168,0.513 -0.024,0.072 -0.046,0.144 -0.07,0.215 -0.015,0.052 -0.032,0.103 -0.049,0.156 -0.291,0.919 -0.564,1.844 -0.82,2.774 -0.085,0.308 -0.167,0.616 -0.248,0.925 0,0.004 -10e-4,0.007 -0.002,0.01 -10e-4,0.004 -0.003,0.008 -0.004,0.013 -0.217,0.836 -0.418,1.676 -0.604,2.519 -0.024,0.134 -0.052,0.267 -0.087,0.401 -0.026,0.158 -0.06,0.316 -0.102,0.474 -0.122,0.588 -0.236,1.177 -0.343,1.766 -0.013,0.164 -0.037,0.327 -0.068,0.49 -0.015,0.105 -0.032,0.211 -0.055,0.316 -0.012,0.11 -0.029,0.22 -0.05,0.33 -0.026,0.213 -0.067,0.426 -0.124,0.639 0,0.002 0,0.004 -10e-4,0.006 -0.035,0.224 -0.068,0.447 -0.1,0.671 -0.038,0.31 -0.075,0.619 -0.109,0.929 -0.001,0.003 -0.001,0.006 -0.001,0.009 -0.003,0.023 -0.006,0.047 -0.008,0.071 -0.002,0.014 -0.004,0.029 -0.005,0.043 -0.021,0.193 -0.041,0.385 -0.061,0.577 -0.004,0.055 -0.01,0.109 -0.015,0.164 -0.084,0.875 -0.152,1.751 -0.2,2.628 v 10e-4 C 7.51,-7.065 7.505,-6.968 7.5,-6.871 7.493,-6.738 7.487,-6.606 7.481,-6.474 v 0.003 C 7.477,-6.357 7.472,-6.244 7.467,-6.13 v 0.007 c -0.027,0.728 -0.041,1.457 -0.043,2.186 0,0.071 10e-4,0.142 10e-4,0.212 v 0.018 c 0,0.131 0.001,0.263 0.002,0.394 0.001,0.009 0.001,0.018 0.001,0.026 0,0.027 0,0.053 0.001,0.079 0,0.044 10e-4,0.087 10e-4,0.131 C 7.461,-0.705 5.427,1.275 3.078,1.275 1.928,1.275 0.812,0.812 0,0" /></g></g></g></g><g
       id="g90" /><g
       id="g92"><g
         clip-path="url(#clipPath98)"
         id="g94"><g
           transform="translate(33.75,166.5)"
           id="g100"><text
             id="text104"
             style="font-variant:normal;font-weight:normal;font-size:52px;font-family:AmaticSC;-inkscape-font-specification:AmaticSC-Regular;writing-mode:lr-tb;fill:#000000;fill-opacity:1;fill-rule:nonzero;stroke:none"
             transform="matrix(1,0,0,-1,8.8868,13.375)"><tspan
               id="tspan102"
               y="0"
               x="0 12.4748 30.461599 48.552399 64.875198 79.585999 92.528801 110.5156 128.1384 135.82919 153.452 165.7708 181.2616 198.26041 217.2872 231.998 239.6888 252.0076">jodablog.github.io</tspan></text>
</g></g></g></g></svg>