<?xml version="1.0" encoding="UTF-8" standalone="no"?>
<svg
   xmlns:dc="http://purl.org/dc/elements/1.1/"
   xmlns:cc="http://creativecommons.org/ns#"
   xmlns:rdf="http://www.w3.org/1999/02/22-rdf-syntax-ns#"
   xmlns:svg="http://www.w3.org/2000/svg"
   xmlns="http://www.w3.org/2000/svg"
   viewBox="0 0 1275.588 803.14801"
   height="803.14801"
   width="1275.588"
   xml:space="preserve"
   id="svg2"
   version="1.1"><metadata
     id="metadata8"><rdf:RDF><cc:Work
         rdf:about=""><dc:format>image/svg+xml</dc:format><dc:type
           rdf:resource="http://purl.org/dc/dcmitype/StillImage" /></cc:Work></rdf:RDF></metadata><defs
     id="defs6"><clipPath
       id="clipPath18"
       clipPathUnits="userSpaceOnUse"><path
         id="path16"
         d="M 0,0 H 1417.3229 V 1000.6299 H 0 Z" /></clipPath></defs><g
     transform="matrix(1.3333333,0,0,-1.3333333,0,803.148)"
     id="g10"><g
       transform="translate(-143.504,-210.474)"
       id="g12"><g
         id="g14" /><g
         id="g256"><g
           id="g254"
           clip-path="url(#clipPath18)"><g
             id="g252"
             transform="matrix(1,0,0,-1,0,1000.6299)"><g
               id="g250"><path
                 id="path20"
                 style="fill:#eeeeee;fill-opacity:1;fill-rule:nonzero;stroke:none"
                 d="M 708.684,1013.992 H 0.504 V 15.176 h 1416.359 v 998.816 z" /><g
                 id="g24"><path
                   id="path22"
                   style="fill:none;stroke:#d8d8d8;stroke-width:1.10382998;stroke-linecap:butt;stroke-linejoin:round;stroke-miterlimit:4;stroke-dasharray:none;stroke-opacity:1"
                   d="M 829.52,1004.395 H 50.379 V -119.387 h 1558.285 v 1123.782 z" /></g><path
                 id="path26"
                 style="fill:#50200c;fill-opacity:1;fill-rule:nonzero;stroke:none"
                 d="m 394.867,85.758 c 0.399,-1.106 0.793,-2.238 1.164,-3.344 2.719,-8.391 4.137,-17.207 4.137,-26.051 0,-8.875 -1.418,-17.66 -4.137,-26.078 -2.75,-8.422 -6.804,-16.328 -11.965,-23.5 -5.214,-7.172 -11.507,-13.465 -18.679,-18.652 -7.172,-5.188 -15.11,-9.242 -23.5,-11.992 -8.418,-2.719 -17.235,-4.11 -26.078,-4.11 v 84.332 z" /><path
                 id="path28"
                 style="fill:#8d281e;fill-opacity:1;fill-rule:nonzero;stroke:none"
                 d="m 309.828,140.465 c 1.957,0.144 3.969,0.226 5.953,0.226 8.871,0 17.688,-1.414 26.106,-4.136 8.39,-2.75 16.328,-6.774 23.5,-11.961 7.172,-5.219 13.465,-11.512 18.679,-18.68 4.508,-6.18 8.11,-12.984 10.801,-20.156 L 315.809,56.363 Z" /><path
                 id="path30"
                 style="fill:#c9211e;fill-opacity:1;fill-rule:nonzero;stroke:none"
                 d="m 284.828,134.797 c 7.992,3.148 16.41,5.047 25,5.668 l 5.981,-84.102 z" /><path
                 id="path32"
                 style="fill:#f10d0c;fill-opacity:1;fill-rule:nonzero;stroke:none"
                 d="m 251.094,110.449 c 4.449,5.301 9.523,10.063 15.136,14.145 5.727,4.164 11.993,7.566 18.598,10.203 l 30.981,-78.434 z" /><path
                 id="path34"
                 style="fill:#ff3838;fill-opacity:1;fill-rule:nonzero;stroke:none"
                 d="m 235.219,81.336 c 0.113,0.34 0.226,0.707 0.34,1.078 2.75,8.418 6.804,16.356 11.992,23.5 1.133,1.559 2.324,3.059 3.543,4.535 l 64.715,-54.086 z" /><path
                 id="path36"
                 style="fill:#ff6d6d;fill-opacity:1;fill-rule:nonzero;stroke:none"
                 d="m 278.73,-19.379 c -4.39,2.125 -8.558,4.649 -12.5,7.512 -7.171,5.187 -13.464,11.48 -18.679,18.652 -5.188,7.172 -9.242,15.078 -11.992,23.5 -2.719,8.418 -4.11,17.203 -4.11,26.078 -0.027,8.477 1.278,16.895 3.77,24.973 l 80.59,-24.973 z" /><path
                 id="path38"
                 style="fill:#ffa6a6;fill-opacity:1;fill-rule:nonzero;stroke:none"
                 d="m 315.809,-27.969 c -8.844,0 -17.661,1.391 -26.079,4.11 -3.769,1.218 -7.453,2.722 -11,4.48 l 37.079,75.742 z" /><text
                 id="text52"
                 style="font-variant:normal;font-weight:normal;font-size:13.01102448px;font-family:Arial;-inkscape-font-specification:ArialMT;writing-mode:lr-tb;fill:#ffffff;fill-opacity:1;fill-rule:nonzero;stroke:none"
                 transform="translate(356.85496,21.893221)"><tspan
                   id="tspan40"
                   y="0"
                   x="0 7.2341294 14.468259">31%</tspan><tspan
                   id="tspan42"
                   y="98.844101"
                   x="-22.422054 -15.187924 -7.953795">20%</tspan><tspan
                   id="tspan44"
                   y="109.55905"
                   x="-67.804726 -60.570599">5%</tspan><tspan
                   id="tspan46"
                   y="96.406303"
                   x="-87.902359 -80.668228">8%</tspan><tspan
                   id="tspan48"
                   y="69.760635"
                   x="-111.40157 -104.16744">6%</tspan><tspan
                   id="tspan50"
                   y="13.946452"
                   x="-114.60471 -107.37059 -100.13646">23%</tspan></text>
<g
                 id="g56"><path
                   id="path54"
                   style="fill:#ffffff;fill-opacity:1;fill-rule:nonzero;stroke:#2e3436;stroke-width:0.99212599;stroke-linecap:butt;stroke-linejoin:round;stroke-miterlimit:4;stroke-dasharray:none;stroke-opacity:1"
                   d="M 1382.371,659.773 H 1262.582 V 205.238 h 239.582 v 454.535 z" /></g><path
                 id="path58"
                 style="fill:#50200c;fill-opacity:1;fill-rule:nonzero;stroke:none"
                 d="m 1270.941,358.109 h -3.91 v -7.765 h 7.797 v 7.765 z" /><path
                 id="path60"
                 style="fill:#8d281e;fill-opacity:1;fill-rule:nonzero;stroke:none"
                 d="m 1337.785,358.109 h -3.914 v -7.765 h 7.797 v 7.765 z" /><path
                 id="path62"
                 style="fill:#c9211e;fill-opacity:1;fill-rule:nonzero;stroke:none"
                 d="m 1389.629,358.109 h -3.91 v -7.765 h 7.793 v 7.765 z" /><path
                 id="path64"
                 style="fill:#ff3838;fill-opacity:1;fill-rule:nonzero;stroke:none"
                 d="m 1270.941,514.641 h -3.91 v -7.797 h 7.797 v 7.797 z" /><path
                 id="path66"
                 style="fill:#ff6d6d;fill-opacity:1;fill-rule:nonzero;stroke:none"
                 d="m 1337.785,514.641 h -3.914 v -7.797 h 7.797 v 7.797 z" /><path
                 id="path68"
                 style="fill:#ffa6a6;fill-opacity:1;fill-rule:nonzero;stroke:none"
                 d="m 1389.629,514.641 h -3.91 v -7.797 h 7.793 v 7.797 z" /><text
                 id="text74"
                 style="font-variant:normal;font-weight:normal;font-size:13.01102448px;font-family:'Helvetica Neue';-inkscape-font-specification:HelveticaNeue;writing-mode:lr-tb;fill:#000000;fill-opacity:1;fill-rule:nonzero;stroke:none"
                 transform="translate(1277.6613,358.70581)"><tspan
                   id="tspan70"
                   y="0"
                   x="0 7.468328 14.936656 22.404984 66.837631 76.23159 83.699921 90.205429 94.303902 101.29082 118.68656 124.95788 129.29054 136.27747">FoodHostelTrav</tspan><tspan
                   id="tspan72"
                   y="156.52914"
                   x="0 11.332602 18.319521 26.035059 28.923506 35.910427 38.798874 46.033005 66.837631 76.712997 79.601448 83.452705 87.551178 118.68656 126.6363 133.87042 137.9689">MedicineGiftsEntr</tspan></text>
<path
                 id="path76"
                 style="fill:#4b2204;fill-opacity:1;fill-rule:nonzero;stroke:none"
                 d="m 400.227,66.48 c 0.308,8.45 1.785,16.84 4.39,24.891 2.977,9.098 7.317,17.66 12.957,25.399 5.641,7.738 12.442,14.539 20.18,20.183 7.769,5.641 16.328,9.977 25.43,12.953 9.125,2.949 18.621,4.477 28.175,4.477 9.582,0 19.079,-1.528 28.176,-4.477 9.129,-2.976 17.688,-7.312 25.457,-12.953 7.738,-5.644 14.539,-12.445 20.18,-20.183 5.613,-7.739 9.98,-16.301 12.957,-25.399 2.945,-9.101 4.476,-18.598 4.476,-28.176 0,-9.554 -1.531,-19.05 -4.476,-28.148 -2.977,-9.102 -7.344,-17.688 -12.957,-25.426 -5.641,-7.742 -12.442,-14.516 -20.18,-20.156 -7.769,-5.641 -16.328,-10.008 -25.457,-12.953 -9.097,-2.95 -18.594,-4.453 -28.176,-4.453 v 91.136 z" /><path
                 id="path78"
                 style="fill:#813709;fill-opacity:1;fill-rule:nonzero;stroke:none"
                 d="m 439.316,-11.641 c -0.539,0.34 -1.023,0.707 -1.562,1.106 -7.738,5.64 -14.539,12.414 -20.18,20.156 -5.64,7.738 -9.98,16.324 -12.957,25.426 -2.945,9.098 -4.449,18.594 -4.449,28.148 0,1.106 0,2.18 0.059,3.285 l 91.132,-3.285 z" /><path
                 id="path80"
                 style="fill:#ed4c05;fill-opacity:1;fill-rule:nonzero;stroke:none"
                 d="m 491.359,-27.941 c -9.554,0 -19.05,1.503 -28.175,4.453 -8.477,2.777 -16.528,6.746 -23.868,11.847 l 52.043,74.836 z" /><text
                 id="text86"
                 style="font-variant:normal;font-weight:normal;font-size:12.72755909px;font-family:Helvetica;-inkscape-font-specification:Helvetica;writing-mode:lr-tb;fill:#ffffff;fill-opacity:1;fill-rule:nonzero;stroke:none"
                 transform="translate(529.76831,120.68062)"><tspan
                   id="tspan82"
                   y="0"
                   x="0 7.0765228 14.153046">74%</tspan><tspan
                   id="tspan84"
                   y="-86.853554"
                   x="-116.24879 -109.17226 -102.09574">16%</tspan></text>
<path
                 id="path88"
                 style="fill:#492300;fill-opacity:1;fill-rule:nonzero;stroke:none"
                 d="m 631.559,480.539 c 7.003,-3.148 13.609,-7.031 19.816,-11.508 9.664,-7.031 18.141,-15.508 25.172,-25.172 7.031,-9.636 12.445,-20.324 16.156,-31.691 3.656,-11.34 5.586,-23.188 5.586,-35.121 0,-11.934 -1.93,-23.754 -5.586,-35.121 -3.711,-11.34 -9.125,-22.028 -16.156,-31.692 -7.031,-9.64 -15.508,-18.113 -25.172,-25.144 -9.668,-7.031 -20.352,-12.445 -31.719,-16.156 -11.34,-3.657 -23.187,-5.528 -35.121,-5.528 v 113.641 z" /><path
                 id="path90"
                 style="fill:#7b3d00;fill-opacity:1;fill-rule:nonzero;stroke:none"
                 d="m 577.445,490.516 c 2.356,0.144 4.735,0.226 7.09,0.226 11.934,0 23.781,-1.898 35.121,-5.554 4.051,-1.333 8.051,-2.891 11.903,-4.649 L 584.535,377.047 Z" /><path
                 id="path92"
                 style="fill:#b85c00;fill-opacity:1;fill-rule:nonzero;stroke:none"
                 d="m 535.805,274.375 c -6.375,3.004 -12.442,6.605 -18.114,10.715 -9.664,7.031 -18.14,15.504 -25.171,25.144 -7.028,9.664 -12.473,20.352 -16.157,31.692 -3.683,11.367 -5.554,23.187 -5.554,35.121 0,11.933 1.871,23.781 5.554,35.121 3.684,11.367 9.129,22.055 16.157,31.691 7.031,9.664 15.507,18.141 25.171,25.172 9.668,7.028 20.356,12.442 31.692,16.157 9.07,2.949 18.512,4.734 28.062,5.328 l 7.09,-113.469 z" /><path
                 id="path94"
                 style="fill:#ea7500;fill-opacity:1;fill-rule:nonzero;stroke:none"
                 d="m 569.625,264.367 c -11.738,1.563 -23.16,4.906 -33.82,10.008 l 48.73,102.672 z" /><path
                 id="path96"
                 style="fill:#ff860d;fill-opacity:1;fill-rule:nonzero;stroke:none"
                 d="m 570.332,264.254 c -0.227,0.031 -0.48,0.086 -0.707,0.113 l 14.91,112.68 z" /><path
                 id="path98"
                 style="fill:#ffb66c;fill-opacity:1;fill-rule:nonzero;stroke:none"
                 d="m 584.535,263.406 c -4.734,0 -9.496,0.254 -14.203,0.848 l 14.203,112.793 z" /><text
                 id="text110"
                 style="font-variant:normal;font-weight:normal;font-size:15.87401581px;font-family:Helvetica;-inkscape-font-specification:Helvetica;writing-mode:lr-tb;fill:#ffffff;fill-opacity:1;fill-rule:nonzero;stroke:none"
                 transform="translate(660.36044,358.28061)"><tspan
                   id="tspan100"
                   y="0"
                   x="0 8.8259525 17.651905">43%</tspan><tspan
                   id="tspan102"
                   y="121.80472"
                   x="-67.152756 -58.326801">8%</tspan><tspan
                   id="tspan104"
                   y="43.45512"
                   x="-182.40944 -173.5835 -164.75754">42%</tspan><tspan
                   id="tspan106"
                   y="-73.360641"
                   x="-117.55276 -108.7268">5%</tspan><tspan
                   id="tspan108"
                   y="-77.584251"
                   x="-93.599991 -84.77404">2%</tspan></text>
<path
                 id="path112"
                 style="fill:#472702;fill-opacity:1;fill-rule:nonzero;stroke:none"
                 d="m 567.836,687.496 c 2.324,-1.418 4.594,-2.949 6.777,-4.535 9.664,-7.031 18.168,-15.535 25.227,-25.199 7.031,-9.696 12.472,-20.41 16.187,-31.778 3.684,-11.394 5.614,-23.242 5.614,-35.207 0,-11.961 -1.93,-23.839 -5.614,-35.207 -3.715,-11.394 -9.156,-22.109 -16.187,-31.773 -7.059,-9.695 -15.563,-18.172 -25.227,-25.231 -9.695,-7.027 -20.41,-12.472 -31.804,-16.183 -11.368,-3.688 -23.247,-5.559 -35.207,-5.559 v 113.953 z" /><path
                 id="path114"
                 style="fill:#784b04;fill-opacity:1;fill-rule:nonzero;stroke:none"
                 d="m 446.516,686.984 c 8.05,5.133 16.781,9.243 25.851,12.192 11.395,3.656 23.274,5.582 35.235,5.582 11.96,0 23.839,-1.926 35.207,-5.582 8.785,-2.864 17.175,-6.778 25.027,-11.68 l -60.234,-96.719 z" /><path
                 id="path116"
                 style="fill:#b47804;fill-opacity:1;fill-rule:nonzero;stroke:none"
                 d="m 453.602,490.375 c -4.508,2.437 -8.872,5.187 -13.012,8.191 -9.695,7.059 -18.199,15.536 -25.227,25.231 -7.058,9.664 -12.504,20.379 -16.215,31.773 -3.687,11.368 -5.554,23.246 -5.554,35.207 0,11.965 1.867,23.813 5.554,35.207 3.711,11.368 9.157,22.082 16.215,31.778 7.028,9.664 15.532,18.168 25.227,25.199 1.93,1.418 3.914,2.75 5.926,4.023 l 61.086,-96.207 z" /><path
                 id="path118"
                 style="fill:#e8a202;fill-opacity:1;fill-rule:nonzero;stroke:none"
                 d="m 503.859,476.855 c -10.687,0.34 -21.316,2.239 -31.492,5.528 -6.492,2.097 -12.758,4.789 -18.765,7.992 l 54,100.402 z" /><path
                 id="path120"
                 style="fill:#ffd428;fill-opacity:1;fill-rule:nonzero;stroke:none"
                 d="m 507.602,476.824 c -1.247,0 -2.497,0 -3.743,0.031 l 3.743,113.922 z" /><text
                 id="text132"
                 style="font-variant:normal;font-weight:normal;font-size:15.93070889px;font-family:Helvetica;-inkscape-font-specification:Helvetica;writing-mode:lr-tb;fill:#ffffff;fill-opacity:1;fill-rule:nonzero;stroke:none"
                 transform="translate(581.92579,565.03966)"><tspan
                   id="tspan122"
                   y="0"
                   x="0 8.8574743 17.714949">41%</tspan><tspan
                   id="tspan124"
                   y="130.81889"
                   x="-89.914963 -81.057487 -72.200012">18%</tspan><tspan
                   id="tspan126"
                   y="25.965351"
                   x="-183.06139 -174.20392 -165.34644">33%</tspan><tspan
                   id="tspan128"
                   y="-67.322845"
                   x="-113.61259 -104.75512">7%</tspan><tspan
                   id="tspan130"
                   y="-71.092926"
                   x="-87.136993 -78.279518">1%</tspan></text>
<path
                 id="path134"
                 style="fill:#443205;fill-opacity:1;fill-rule:nonzero;stroke:none"
                 d="m 691.625,656.938 c 1.531,0.597 3.063,1.105 4.621,1.644 11.395,3.688 23.274,5.586 35.266,5.586 11.988,0 23.867,-1.898 35.261,-5.586 11.395,-3.711 22.137,-9.184 31.832,-16.215 9.696,-7.058 18.2,-15.562 25.258,-25.254 7.059,-9.695 12.5,-20.41 16.242,-31.804 3.657,-11.395 5.586,-23.274 5.586,-35.235 0,-11.992 -1.929,-23.871 -5.586,-35.265 -3.742,-11.368 -9.183,-22.11 -16.242,-31.805 -7.058,-9.664 -15.562,-18.199 -25.258,-25.227 -9.695,-7.058 -20.437,-12.5 -31.832,-16.215 -11.394,-3.683 -23.273,-5.554 -35.261,-5.554 v 114.066 z" /><path
                 id="path136"
                 style="fill:#706e0c;fill-opacity:1;fill-rule:nonzero;stroke:none"
                 d="m 658.66,637.891 c 1.871,1.558 3.77,3.062 5.754,4.476 8.391,6.067 17.52,10.973 27.211,14.571 l 39.887,-106.864 z" /><path
                 id="path138"
                 style="fill:#acb20c;fill-opacity:1;fill-rule:nonzero;stroke:none"
                 d="m 619.457,528.219 c -1.391,7.199 -2.07,14.511 -2.07,21.855 0,11.961 1.871,23.84 5.554,35.235 3.715,11.394 9.157,22.109 16.215,31.804 5.614,7.711 12.16,14.684 19.504,20.778 l 72.852,-87.817 z" /><path
                 id="path140"
                 style="fill:#e6e905;fill-opacity:1;fill-rule:nonzero;stroke:none"
                 d="m 707.586,438.5 c -3.828,0.824 -7.625,1.844 -11.34,3.062 -11.394,3.715 -22.137,9.157 -31.832,16.215 -9.695,7.028 -18.199,15.563 -25.258,25.227 -7.058,9.695 -12.5,20.437 -16.215,31.805 -1.414,4.394 -2.578,8.875 -3.484,13.41 l 112.055,21.855 z" /><path
                 id="path142"
                 style="fill:#ffff38;fill-opacity:1;fill-rule:nonzero;stroke:none"
                 d="m 708.551,438.332 c -0.313,0.055 -0.625,0.086 -0.965,0.168 l 23.926,111.574 z" /><path
                 id="path144"
                 style="fill:#ffffa6;fill-opacity:1;fill-rule:nonzero;stroke:none"
                 d="m 731.512,436.008 c -7.711,0 -15.395,0.765 -22.961,2.324 l 22.961,111.742 z" /><text
                 id="text154"
                 style="font-variant:normal;font-weight:normal;font-size:15.93070889px;font-family:Arial;-inkscape-font-specification:ArialMT;writing-mode:lr-tb;fill:#ffffff;fill-opacity:1;fill-rule:nonzero;stroke:none"
                 transform="translate(808.35729,574.47904)"><tspan
                   id="tspan146"
                   y="0"
                   x="0 8.8574743 17.714949">56%</tspan><tspan
                   id="tspan148"
                   y="66.188972"
                   x="-131.41417 -122.55669">5%</tspan><tspan
                   id="tspan150"
                   y="17.319675"
                   x="-179.43307 -170.57559 -161.71812">17%</tspan><tspan
                   id="tspan152"
                   y="-86.910255"
                   x="-154.60158 -145.74409 -136.88663">19%</tspan></text>
<text
                 id="text158"
                 style="font-variant:normal;font-weight:normal;font-size:15.93070889px;font-family:Arial;-inkscape-font-specification:ArialMT;writing-mode:lr-tb;fill:#000000;fill-opacity:1;fill-rule:nonzero;stroke:none"
                 transform="translate(709.48485,455.50896)"><tspan
                   id="tspan156"
                   y="0"
                   x="0 8.8574743">3%</tspan></text>
<path
                 id="path160"
                 style="fill:#4b2204;fill-opacity:1;fill-rule:nonzero;stroke:none"
                 d="m 472.34,458.57 c 0.422,-1.105 0.82,-2.211 1.187,-3.343 2.723,-8.45 4.141,-17.266 4.141,-26.165 0,-8.874 -1.418,-17.687 -4.141,-26.136 -2.746,-8.446 -6.8,-16.41 -12.047,-23.614 -5.214,-7.171 -11.535,-13.492 -18.734,-18.707 -7.203,-5.246 -15.137,-9.296 -23.613,-12.046 -8.449,-2.723 -17.266,-4.11 -26.164,-4.11 v 84.613 z" /><path
                 id="path162"
                 style="fill:#813709;fill-opacity:1;fill-rule:nonzero;stroke:none"
                 d="m 386.957,513.504 c 2.016,0.144 4,0.23 6.012,0.23 8.898,0 17.715,-1.418 26.164,-4.168 8.476,-2.75 16.41,-6.777 23.613,-12.019 7.199,-5.215 13.52,-11.539 18.734,-18.738 4.536,-6.207 8.165,-13.039 10.86,-20.239 l -79.371,-29.508 z" /><path
                 id="path164"
                 style="fill:#be480a;fill-opacity:1;fill-rule:nonzero;stroke:none"
                 d="m 361.902,507.809 c 8.02,3.175 16.469,5.074 25.055,5.695 l 6.012,-84.442 z" /><path
                 id="path166"
                 style="fill:#ed4c05;fill-opacity:1;fill-rule:nonzero;stroke:none"
                 d="m 328,483.344 c 4.477,5.332 9.578,10.121 15.219,14.203 5.758,4.195 12.019,7.625 18.683,10.262 l 31.067,-78.747 z" /><path
                 id="path168"
                 style="fill:#ff5429;fill-opacity:1;fill-rule:nonzero;stroke:none"
                 d="m 312.098,454.148 c 0.113,0.34 0.226,0.707 0.34,1.079 2.75,8.445 6.8,16.41 12.046,23.582 1.133,1.558 2.297,3.062 3.516,4.535 l 64.969,-54.282 z" /><path
                 id="path170"
                 style="fill:#ff7b59;fill-opacity:1;fill-rule:nonzero;stroke:none"
                 d="m 355.75,353.035 c -4.367,2.156 -8.59,4.68 -12.531,7.57 -7.199,5.215 -13.52,11.536 -18.735,18.707 -5.246,7.204 -9.296,15.168 -12.046,23.614 -2.723,8.449 -4.141,17.262 -4.141,26.136 0,8.504 1.277,16.95 3.801,25.086 l 80.871,-25.086 z" /><path
                 id="path172"
                 style="fill:#ffaa95;fill-opacity:1;fill-rule:nonzero;stroke:none"
                 d="m 392.969,344.449 c -8.871,0 -17.688,1.387 -26.164,4.11 -3.77,1.246 -7.457,2.718 -11.055,4.476 l 37.219,76.027 z" /><text
                 id="text188"
                 style="font-variant:normal;font-weight:normal;font-size:11.82047176px;font-family:Helvetica;-inkscape-font-specification:Helvetica;writing-mode:lr-tb;fill:#ffffff;fill-opacity:1;fill-rule:nonzero;stroke:none"
                 transform="translate(436.84866,391.84282)"><tspan
                   id="tspan174"
                   y="0"
                   x="0 6.5721827 13.144365">31%</tspan><tspan
                   id="tspan176"
                   y="102.44409"
                   x="-22.62047 -16.048288 -9.4761057">20%</tspan><tspan
                   id="tspan178"
                   y="113.30078"
                   x="-69.959053 -63.386868">5%</tspan><tspan
                   id="tspan180"
                   y="100.0063"
                   x="-91.162201 -84.590019">8%</tspan><tspan
                   id="tspan182"
                   y="73.133865"
                   x="-114.85983 -108.28765">6%</tspan><tspan
                   id="tspan184"
                   y="14.059849"
                   x="-118.03464 -111.46246 -104.89027">23%</tspan><tspan
                   id="tspan186"
                   y="-32.626759"
                   x="-70.270859 -63.698681">7%</tspan></text>
<path
                 id="path190"
                 style="fill:#50200c;fill-opacity:1;fill-rule:nonzero;stroke:none"
                 d="m 211.238,582.586 c 0.313,8.476 1.785,16.84 4.395,24.887 2.949,9.101 7.312,17.691 12.953,25.429 5.641,7.739 12.445,14.539 20.184,20.153 7.738,5.64 16.328,10.007 25.425,12.953 9.102,2.949 18.598,4.48 28.176,4.48 9.582,0 19.078,-1.531 28.18,-4.48 9.097,-2.946 17.687,-7.313 25.426,-12.953 7.765,-5.614 14.57,-12.414 20.183,-20.153 5.641,-7.738 10.004,-16.328 12.981,-25.429 2.949,-9.098 4.453,-18.567 4.453,-28.145 0,-9.582 -1.504,-19.078 -4.453,-28.18 -2.977,-9.097 -7.34,-17.66 -12.981,-25.398 -5.613,-7.738 -12.418,-14.539 -20.183,-20.18 -7.739,-5.613 -16.329,-9.98 -25.426,-12.957 -9.102,-2.945 -18.598,-4.422 -28.18,-4.422 v 91.137 z" /><path
                 id="path192"
                 style="fill:#8d281e;fill-opacity:1;fill-rule:nonzero;stroke:none"
                 d="m 250.328,504.465 c -0.539,0.367 -1.019,0.734 -1.558,1.105 -7.739,5.641 -14.543,12.442 -20.184,20.18 -5.641,7.738 -10.004,16.301 -12.953,25.398 -2.949,9.102 -4.449,18.598 -4.449,28.18 0,1.074 0,2.152 0.054,3.258 l 91.133,-3.258 z" /><path
                 id="path194"
                 style="fill:#f10d0c;fill-opacity:1;fill-rule:nonzero;stroke:none"
                 d="m 302.371,488.191 c -9.578,0 -19.074,1.477 -28.176,4.422 -8.504,2.778 -16.554,6.746 -23.867,11.852 l 52.043,74.863 z" /><text
                 id="text202"
                 style="font-variant:normal;font-weight:normal;font-size:12.72755909px;font-family:Helvetica;-inkscape-font-specification:Helvetica;writing-mode:lr-tb;fill:#ffffff;fill-opacity:1;fill-rule:nonzero;stroke:none"
                 transform="translate(340.78251,636.81289)"><tspan
                   id="tspan196"
                   y="0"
                   x="0 7.0765228 14.153046">74%</tspan><tspan
                   id="tspan198"
                   y="-86.881897"
                   x="-116.24883 -109.1723 -102.09578">16%</tspan><tspan
                   id="tspan200"
                   y="-130.96065"
                   x="-76.507072 -69.43055 -62.354031">10%</tspan></text>
<text
                 id="text214"
                 style="font-variant:normal;font-weight:normal;font-size:20.01259804px;font-family:'Helvetica Neue';-inkscape-font-specification:HelveticaNeue;writing-mode:lr-tb;fill:#000000;fill-opacity:1;fill-rule:nonzero;stroke:none"
                 transform="translate(371.93527,333.90266)"><tspan
                   id="tspan204"
                   y="0"
                   x="0 12.968163 23.71493 30.379124">Peru</tspan><tspan
                   id="tspan206"
                   y="-81.014175"
                   x="181.7291 195.43773 206.92496 211.36775 215.81055 225.81685 230.25964">Bolivia</tspan><tspan
                   id="tspan208"
                   y="363.51495"
                   x="-108.68031 -96.452614 -85.705849 -74.57885 -63.832081 -51.964611 -40.477379">Ecuador</tspan><tspan
                   id="tspan210"
                   y="396.4252"
                   x="116.22044 130.66954 141.79654 146.23933 150.68213">Chile</tspan><tspan
                   id="tspan212"
                   y="356.76852"
                   x="321.27872 334.24686 340.35071 351.83795 362.58472 373.7117 380.01569 384.45847 395.58548">Argentina</tspan></text>
<g
                 id="g218"><path
                   id="path216"
                   style="fill:#ffffff;fill-opacity:1;fill-rule:nonzero;stroke:#2e3436;stroke-width:1.44566905;stroke-linecap:butt;stroke-linejoin:round;stroke-miterlimit:4;stroke-dasharray:none;stroke-opacity:1"
                   d="M 968.145,693.562 H 898.047 V 427.73 h 140.144 v 265.832 z" /></g><path
                 id="path220"
                 style="fill:#1c1c1c;fill-opacity:1;fill-rule:nonzero;stroke:none"
                 d="m 922.113,458.398 h -5.644 v -11.25 h 11.254 v 11.25 z" /><path
                 id="path222"
                 style="fill:#333333;fill-opacity:1;fill-rule:nonzero;stroke:none"
                 d="m 922.113,494.316 h -5.644 v -11.254 h 11.254 v 11.254 z" /><path
                 id="path224"
                 style="fill:#666666;fill-opacity:1;fill-rule:nonzero;stroke:none"
                 d="m 922.113,530.23 h -5.644 v -11.253 h 11.254 v 11.253 z" /><path
                 id="path226"
                 style="fill:#808080;fill-opacity:1;fill-rule:nonzero;stroke:none"
                 d="m 922.113,566.145 h -5.644 v -11.254 h 11.254 v 11.254 z" /><path
                 id="path228"
                 style="fill:#999999;fill-opacity:1;fill-rule:nonzero;stroke:none"
                 d="m 922.113,602.059 h -5.644 v -11.254 h 11.254 v 11.254 z" /><path
                 id="path230"
                 style="fill:#b2b2b2;fill-opacity:1;fill-rule:nonzero;stroke:none"
                 d="m 922.113,638.004 h -5.644 v -11.281 h 11.254 v 11.281 z" /><path
                 id="path232"
                 style="fill:#cccccc;fill-opacity:1;fill-rule:nonzero;stroke:none"
                 d="m 922.113,673.918 h -5.644 v -11.281 h 11.254 v 11.281 z" /><text
                 id="text248"
                 style="font-variant:normal;font-weight:normal;font-size:18.79370117px;font-family:'Helvetica Neue';-inkscape-font-specification:HelveticaNeue;writing-mode:lr-tb;fill:#000000;fill-opacity:1;fill-rule:nonzero;stroke:none"
                 transform="translate(931.83451,459.25069)"><tspan
                   id="tspan234"
                   y="0"
                   x="0 10.787584 21.575169 32.362755">Food</tspan><tspan
                   id="tspan236"
                   y="35.91497"
                   x="0 13.569052 24.356636 33.753487 39.673504 49.76572">Hostel</tspan><tspan
                   id="tspan238"
                   y="71.858276"
                   x="0 9.0585642 15.316866 25.409084 34.805935 44.898151">Travel</tspan><tspan
                   id="tspan240"
                   y="107.77325"
                   x="0 12.873685 17.045887 26.799818">Bike</tspan><tspan
                   id="tspan242"
                   y="143.68822"
                   x="0 16.369314 26.461531 37.606197 41.778397 51.870613 56.042816 66.492111">Medicine</tspan><tspan
                   id="tspan244"
                   y="179.6032"
                   x="0 14.264419 18.436621 23.999556 29.919573">Gifts</tspan><tspan
                   id="tspan246"
                   y="215.51816"
                   x="0 11.482951 21.932249 27.852264 34.110569 43.50742 48.732067 59.51965 69.61187 79.704086">Entry Fees</tspan></text>
</g></g></g></g></g></g></svg>